<?xml version="1.0" encoding="UTF-8"?>
<svg width="314px" height="381px" viewBox="0 0 314 381" version="1.1" xmlns="http://www.w3.org/2000/svg" xmlns:xlink="http://www.w3.org/1999/xlink">
    <!-- Generator: Sketch 61.2 (89653) - https://sketch.com -->
    <title>Group 2</title>
    <desc>Created with Sketch.</desc>
    <defs>
        <linearGradient x1="50%" y1="55.246296%" x2="39.7862738%" y2="92.3918597%" id="linearGradient-1">
            <stop stop-color="#FFFFFF" offset="0%"></stop>
            <stop stop-color="#FFFFFF" stop-opacity="0" offset="100%"></stop>
        </linearGradient>
        <polygon id="path-2" points="8.52651232e-15 9.42991628 22.4558305 15.9642909 51.1721235 6.74624945 28.83085 -1.1084466e-13"></polygon>
        <polygon id="path-4" points="8.52651232e-15 9.42991628 22.4558305 15.9642909 51.1721235 6.74624945 28.83085 -1.1084466e-13"></polygon>
        <polygon id="path-6" points="3.31510825e-13 -6.13908936e-15 22.3401218 80.5374437 4.48056846 88.3606939 3.58359844 70.306131"></polygon>
        <polygon id="path-8" points="5.21464441 1.84172681e-14 27.5547662 80.5374437 14.4604398 87.8093999 -5.83213489e-14 85.8678172"></polygon>
        <polygon id="path-10" points="6.04480159 11.0278829 51.5665338 119.915247 0.419826575 123.108119"></polygon>
        <polygon id="path-12" points="2.42836974 44.9300785 9.29493069 7.36690679e-15 30.2591981 73.5034237 1.08661875e-13 70.5582126"></polygon>
        <polygon id="path-14" points="-1.65755403e-13 7.36690679e-15 31.0232461 69.2522242 20.9642674 73.5034237"></polygon>
        <polygon id="path-16" points="9.51558851e-14 105.974223 46.5775822 0.239766231 40.9526072 112.320002"></polygon>
        <polygon id="path-18" points="1.45702176 14.6071425 9.03295815 0.016781298 18.1555177 24.8276077 0 23.7741284"></polygon>
        <polygon id="path-20" points="-2.72848394e-13 0.016781298 15.1579465 23.3069864 9.1225596 24.8276077"></polygon>
        <polygon id="path-22" points="5.77133437 0.121931611 51.2930666 109.009296 0.146359358 112.202168"></polygon>
        <polygon id="path-24" points="38.6097627 3.09410085e-13 13.7245667 91.0281195 -1.8417267e-14 89.371808"></polygon>
        <polygon id="path-26" points="24.8851961 3.09410085e-13 24.8851961 89.9252264 -6.0776981e-14 91.0281195"></polygon>
        <polygon id="path-28" points="12.8124473 2.35741017e-13 0 65.9691782 40.8347812 68.1447302"></polygon>
        <polygon id="path-30" points="0 0.0231215429 28.0223339 68.1678517 34.6960731 62.7900975"></polygon>
        <polygon id="path-32" points="6.82120945e-15 7.54393258 17.9646633 12.771432 40.9376964 5.39699924 23.0646786 -8.86757229e-14"></polygon>
    </defs>
    <g id="Page-1" stroke="none" stroke-width="1" fill="none" fill-rule="evenodd" opacity="0.800000012">
        <g id="Group-2">
            <circle id="Oval" fill="url(#linearGradient-1)" opacity="0.340000004" cx="169.5" cy="158.5" r="144.5"></circle>
            <g id="Group-26" transform="translate(0.000000, 40.000000)">
                <polygon id="Path-77" fill="#4E4E4E" transform="translate(234.885923, 245.699985) scale(-1, 1) translate(-234.885923, -245.699985) " points="221.985924 203.887466 247.785923 293.999982 232.658289 197.399988"></polygon>
                <polygon id="Path-78" fill="#363636" transform="translate(225.285924, 244.751509) scale(-1, 1) translate(-225.285924, -244.751509) " points="228.098873 293.051506 237.585923 198.769674 212.985925 196.451512"></polygon>
                <polygon id="Path-142" fill="#292929" points="233.985924 174.589556 260.450961 167.873853 244.157212 241.199986"></polygon>
                <polyline id="Path-143" fill="#151515" points="244.157212 241.199986 223.785924 194.757463 233.837095 174.589556"></polyline>
                <polygon id="Path-141" fill="#373737" points="248.774106 220.967135 261.007895 168.547791 235.429966 174.887841"></polygon>
                <polygon id="Path" fill="#838383" points="248.774106 220.967135 294.331037 157.348975 260.450961 168.547791"></polygon>
                <polygon id="Path-52" fill="#454545" points="230.385924 173.293561 233.221988 172.79999 233.985924 223.799987"></polygon>
                <polygon id="Path-49" fill="#838383" points="260.450961 158.696268 255.017563 184.90594 247.856064 165.775336"></polygon>
                <polygon id="Path-50" fill="#838383" points="233.203697 177.851513 233.985924 224.639206 247.856064 175.626859"></polygon>
                <polygon id="Path-83" fill="#260101" points="200.985926 157.199991 211.397647 157.199991 218.985924 163.772446 213.464112 176.399989 204.102481 169.327774"></polygon>
                <polygon id="Path-51" fill="#B6B6B6" points="233.985924 224.423994 229.185924 236.999986 229.185924 152.999991"></polygon>
                <polygon id="Path-82" fill="#151515" points="188 261.204279 195.266203 271.199997 206.599999 260.179997 199.024984 228"></polygon>
                <polygon id="Path-73" fill="#323232" points="206.985925 204.851511 176.835606 302.651506 165.585928 273.759249 165.585928 231.035864"></polygon>
                <polygon id="Path-58" fill="#959595" points="180.585927 185.609325 191.240753 224.399987 149.385929 181.799989"></polygon>
                <polygon id="Path-81" fill="#232323" points="176.670693 301.720451 153.585928 258.637055 159.585928 202.451512"></polygon>
                <polygon id="Path-59" fill="#525252" points="213.115556 181.175805 218.985924 180.251513 199.785926 231.65024 187.460731 239.399986 191.466185 223.746997"></polygon>
                <polygon id="Path-65" fill="#3F3F3F" points="108.585931 184.751513 94.9608342 259.499985 134.32089 183.851513"></polygon>
                <polygon id="Path-60" fill="#373737" points="149.385929 181.799989 180.393103 266.399984 191.385926 224.061574"></polygon>
                <polygon id="Path-61" fill="#525252" points="145.054152 169.79999 137.621681 236.566142 172.785927 241.199986"></polygon>
                <polygon id="Path-87" fill="#260101" points="121.78593 159.59999 140.985929 163.034866 134.888862 173.39999"></polygon>
                <polygon id="Path-85" fill="#373737" points="110.985931 184.451513 116.985931 240.103307 109.819622 242.399986 85.7859324 173.928853 86.7882895 158.399991"></polygon>
                <polygon id="Path-62" fill="#454545" points="145.9825 165.213898 109.785931 244.799985 137.621681 236.566142"></polygon>
                <polygon id="Path-86" fill="#838383" points="110.985931 184.451513 140.827541 181.175805 115.88481 233.399986"></polygon>
                <polygon id="Path-66" fill="#505050" points="102.585931 227.65151 113.316637 294.251506 117.58593 238.924991"></polygon>
                <polygon id="Path-67" fill="#5D5D5D" points="113.385931 294.251506 130.18593 248.643514 117.669907 239.051509"></polygon>
                <polygon id="Path-64" fill="#333333" points="97.1859317 197.399988 69.5847615 261.226899 101.385931 213.16362"></polygon>
                <polygon id="Path-65" fill="#838383" points="85.2509715 186.251513 94.9608342 259.499985 110.985931 185.351513"></polygon>
                <polygon id="Path-69" fill="#3F3F3F" points="69.5847615 261.226899 98.9859316 194.646234 46.0154269 188.051512"></polygon>
                <polygon id="Path-70" fill="#783E2A" points="59.9859339 161.462318 75.9108829 134.399992 83.3516038 136.716395 98.9859316 170.39999"></polygon>
                <polygon id="Path-51" fill="#525252" points="233.985924 224.423994 229.185924 236.999986 229.185924 152.999991"></polygon>
                <polygon id="Path-72" fill="#232323" points="199.785926 230.999986 208.551785 286.799983 223.785924 233.26846"></polygon>
                <polygon id="Path-55" fill="#454545" points="199.785926 231.281528 229.185924 236.631275 229.185924 178.199989 218.985924 179.882802"></polygon>
                <polygon id="Path-71" fill="#454545" points="2.51671585e-13 164.39999 66.0392539 226.499986 54.4816374 166.967891"></polygon>
                <polygon id="Path-80" fill="#191919" points="118.18593 238.343838 143.985929 330.851504 131.38593 233.399986"></polygon>
                <polyline id="Path-81" fill="#383838" points="143.671202 340.19998 153.585928 297.239878 142.785929 239.399986"></polyline>
                <polygon id="Path-77" fill="#5F5F5F" points="131.38593 233.399986 157.785928 326.651504 142.785929 230.05151"></polygon>
                <polygon id="Path-78" fill="#696969" points="157.898878 326.651504 166.56415 240.148384 142.785929 230.05151"></polygon>
                <polygon id="Path-78" fill="#7A7A7A" points="157.785928 326.651504 172.785927 241.199986 166.56415 240.148384"></polygon>
                <polygon id="Path-79" fill="#4B4B4B" points="118.18593 238.343838 145.03798 281.718304 131.38593 233.399986"></polygon>
                <polygon id="Path-43" fill="#747474" points="54.0509733 157.412522 8.1001867e-14 154.548467 8.1001867e-14 164.39999 54.5917936 167.480336"></polygon>
                <polygon id="Path-43" fill="#8F8F8F" points="110.985931 174.892519 78.9357375 180.599989 78.9357375 190.488416 110.985931 185.088417"></polygon>
                <polygon id="Path-43" fill="#A5A5A5" points="140.827541 171.324282 110.985931 174.90746 110.985931 185.088417 140.827541 181.175805"></polygon>
                <polygon id="Path-43" fill="#767676" points="180.075868 176.111562 170.081826 174.923867 170.313767 185.088417 180.075868 185.999989"></polygon>
                <polygon id="Path-43" fill="#949494" points="170.313341 175.19999 140.827541 170.964101 140.827541 181.175805 170.313341 185.088417"></polygon>
                <polygon id="Path-43" fill="#808080" points="195.922967 180.599989 179.985927 175.79999 180.075868 185.999989 195.922967 190.488416"></polygon>
                <polygon id="Path-43" fill="#888888" points="195.922967 180.599989 213.025614 171.213186 213.115556 181.175805 195.921942 190.451512"></polygon>
                <polygon id="Path-43" fill="#9A9A9A" points="247.856064 165.813186 213.025614 171.213186 213.115556 181.175805 247.856064 175.464233"></polygon>
                <polygon id="Path-43" fill="#BDBDBD" points="247.856064 165.813186 260.917953 158.384696 261.007895 168.509941 247.856064 175.49999"></polygon>
                <polygon id="Path-43" fill="#C2C2C2" points="294.331037 147.497452 260.917953 158.384696 261.007895 168.547791 294.331037 157.348975"></polygon>
                <polygon id="Path-43" fill="#767676" points="53.7123747 157.112173 54.5917936 167.480336 73.4412773 174.743291 73.4412773 164.738033"></polygon>
                <polygon id="Path-43" fill="#636363" points="73.4412773 164.738033 73.4412773 174.589556 78.9357375 190.488416 78.9357375 180.599989"></polygon>
                <polygon id="Path-43" fill="#949494" points="54.0509733 152.012522 -2.5579537e-14 149.148468 -2.5579537e-14 154.548467 54.5917936 157.628813"></polygon>
                <polygon id="Path-43" fill="#9C9C9C" points="110.985931 169.492519 78.9357375 175.19999 78.9357375 180.599989 110.985931 175.19999"></polygon>
                <polygon id="Path-43" fill="#ADADAD" points="140.827541 165.924282 110.985931 169.507461 110.985931 175.19999 140.827541 171.324282"></polygon>
                <polygon id="Path-43" fill="#9C9C9C" points="170.313341 169.79999 140.827541 165.564101 140.827541 171.25663 170.313341 175.19999"></polygon>
                <polygon id="Path-43" fill="#828282" points="180.075868 170.711562 170.081826 169.523867 170.313767 175.19999 180.075868 176.111562"></polygon>
                <polygon id="Path-92" fill="#373737" points="180.585927 185.651513 191.239727 223.788414 195.921942 190.13994"></polygon>
                <polygon id="Path-43" fill="#919191" points="195.922967 175.19999 179.985927 170.39999 180.075868 176.111562 195.922967 180.599989"></polygon>
                <polygon id="Path-43" fill="#9E9E9E" points="195.922967 175.19999 213.025614 165.813186 213.115556 171.524758 195.922967 180.599989"></polygon>
                <polygon id="Path-43" fill="#B3B3B3" points="247.856064 160.413187 213.025614 165.813186 213.115556 171.524758 247.856064 165.813186"></polygon>
                <polygon id="Path-43" fill="#C8C8C8" points="247.856064 160.413187 260.917953 152.984696 261.007895 158.696268 247.856064 165.813186"></polygon>
                <polygon id="Path-43" fill="#D3D3D3" points="294.331037 142.097452 260.917953 152.984696 261.007895 158.696268 294.331037 147.497452"></polygon>
                <polygon id="Path-43" fill="#838383" points="53.7123747 151.712174 54.5917936 157.628813 73.4412773 164.738033 73.4412773 159.338033"></polygon>
                <polygon id="Path-43" fill="#727272" points="73.4412773 159.338033 73.4412773 164.738033 78.9357375 180.599989 78.9357375 175.19999"></polygon>
                <polygon id="Path-43" fill="#FFFFFF" points="125.906736 97.2859123 73.4412773 119.383148 49.4437471 127.421425 34.9857401 130.966299 54.0509733 152.012522 73.4412773 159.338033 78.9357375 175.19999 109.298526 169.879509 140.827541 165.924282 170.25857 169.879509 179.90112 170.749589 195.922967 175.19999 213.115556 165.924282 247.856064 160.375336 260.579779 153.257598 294.331037 142.097452 261.007895 124.043593 240.52988 113.827631 214.485925 108.694658 186.285926 102.753623"></polygon>
                <g id="Path-146-+-Path-146-+-Path-146-+-Path-146-+-Path-146-Mask" transform="translate(167.539436, 152.748199)">
                    <mask id="mask-3" fill="white">
                        <use xlink:href="#path-2"></use>
                    </mask>
                    <use id="Mask" fill="#717171" xlink:href="#path-2"></use>
                    <polygon id="Path-146" fill="#545454" mask="url(#mask-3)" points="2.24649164 8.85084158 24.3843773 15.8517909 28.0464901 14.8067981 5.84963656 7.4517914"></polygon>
                    <polygon id="Path-146" fill="#545454" mask="url(#mask-3)" points="7.64649132 7.05084169 29.784377 14.051791 33.4464898 13.0067982 11.2496362 5.65179151"></polygon>
                    <polygon id="Path-146" fill="#545454" mask="url(#mask-3)" points="13.046491 5.2508418 35.1843767 12.2517911 38.8464895 11.2067983 16.6496359 3.85179161"></polygon>
                    <polygon id="Path-146" fill="#545454" mask="url(#mask-3)" points="18.4464907 3.45084191 41.0992109 10.4517912 44.8464891 9.4067984 22.1334297 2.05179172"></polygon>
                    <polygon id="Path-146" fill="#545454" mask="url(#mask-3)" points="23.8464904 1.65084201 46.4992106 8.65179133 50.2464888 7.60679851 27.5334293 0.251791829"></polygon>
                </g>
                <g id="Path-146-+-Path-146-+-Path-146-+-Path-146-+-Path-146-Mask" transform="translate(142.185929, 144.599991)">
                    <mask id="mask-5" fill="white">
                        <use xlink:href="#path-4"></use>
                    </mask>
                    <use id="Mask" fill="#777777" xlink:href="#path-4"></use>
                    <polygon id="Path-146" fill="#545454" mask="url(#mask-5)" points="2.24649164 8.85084158 24.3843773 15.8517909 28.0464901 14.8067981 5.84963656 7.4517914"></polygon>
                    <polygon id="Path-146" fill="#545454" mask="url(#mask-5)" points="7.64649132 7.05084169 29.784377 14.051791 33.4464898 13.0067982 11.2496362 5.65179151"></polygon>
                    <polygon id="Path-146" fill="#545454" mask="url(#mask-5)" points="13.046491 5.2508418 35.1843767 12.2517911 38.8464895 11.2067983 16.6496359 3.85179161"></polygon>
                    <polygon id="Path-146" fill="#545454" mask="url(#mask-5)" points="18.4464907 3.45084191 41.0992109 10.4517912 44.8464891 9.4067984 22.1334297 2.05179172"></polygon>
                    <polygon id="Path-146" fill="#545454" mask="url(#mask-5)" points="23.8464904 1.65084201 46.4992106 8.65179133 50.2464888 7.60679851 27.5334293 0.251791829"></polygon>
                </g>
                <g id="Group-19" transform="translate(78.585933, 115.021575)">
                    <polygon id="Path-88" fill="#ECECEC" points="0 42.0947929 4.49999973 55.0472674 19.9788307 54.7808335 49.5703652 46.380834 51.3094468 25.8101884 76.6464872 17.2877188 87.1083932 17.2877188 100.646486 13.9016337 113.042785 9.7475594 115.199993 4.37841771 106.685435 0.0813641327 103.277455 0.599999964 105.842708 5.270589 103.277455 7.3781681 95.260544 11.9064927 86.0724558 13.7440707 76.2039736 12.5142209 65.4413504 9.02201792 39.1713276 16.9238608 31.5248685 34.387866 15.5528274 35.3670652"></polygon>
                    <g id="Group-17" transform="translate(107.399994, 5.578418)">
                        <polygon id="Path-145" fill="#8B8B8B" points="7.40740758e-14 0.538427793 3.4446348 4.9187436 3.72341286 4.82675142 7.40740758e-14 -8.41993092e-14"></polygon>
                        <polygon id="Path-145" fill="#B5B5B5" points="3.50652819e-13 0.0794065518 3.72341286 4.82675142 5.64279174 4.16914176 2.23017509 9.21929145e-14"></polygon>
                    </g>
                    <g id="Group-18" transform="translate(38.999998, 15.178417)">
                        <g id="Group-17">
                            <polygon id="Path-145" fill="#545454" opacity="0.5" points="0.171329914 1.74544374 20.2866199 7.95410109 22.0139635 7.37783159 1.26804192 1.36955558"></polygon>
                            <polygon id="Path-145" fill="#AFAFAF" points="2.72848394e-13 1.00901711 22.4558305 7.54339172 26.9631139 6.39139107 3.76593227 0"></polygon>
                        </g>
                    </g>
                    <g id="Group-18" transform="translate(19.199999, 34.978416)">
                        <g id="Group-17">
                            <polygon id="Path-145" fill="#8B8B8B" points="0.177539052 0.741059345 4.43979466 5.83020947 4.43979466 5.1872214 0.177539052 0.0980712832"></polygon>
                            <polygon id="Path-145" fill="#C3C3C3" points="7.19999957 5.83020947 4.43979466 5.83020947 4.43979466 5.1872214 7.19999957 5.1872214"></polygon>
                            <polygon id="Path-145" fill="#B5B5B5" points="0.177539052 0.0980712832 4.43979466 5.1872214 7.19999957 5.1872214 3.07778302 0"></polygon>
                        </g>
                    </g>
                </g>
                <g id="Berge" transform="translate(80.585933, 0.000000)">
                    <g id="Group-8" transform="translate(52.276174, 0.376917)">
                        <polygon id="Path-29" fill="#BBDBDD" points="19.8720004 31.5252709 26.1934677 0.864000017 29.7770662 42.0099501 23.6236977 36.5812174 20.6500562 42.7112867"></polygon>
                        <g id="Path-21" transform="translate(26.193468, 0.864000)">
                            <mask id="mask-7" fill="white">
                                <use xlink:href="#path-6"></use>
                            </mask>
                            <use id="Mask" fill="#F4F4F4" xlink:href="#path-6"></use>
                            <polygon fill="#FFFFFF" mask="url(#mask-7)" points="-1.36893445 41.8472867 3.58359844 57.0337753 7.28367444 44.5510836 19.0080004 63.8035886 5.40456568e-13 -5.52518042e-14"></polygon>
                        </g>
                        <g id="Path-21" transform="translate(3.875827, 0.487083)">
                            <mask id="mask-9" fill="white">
                                <use xlink:href="#path-8"></use>
                            </mask>
                            <use id="Mask" fill="#909090" transform="translate(13.777383, 43.904700) scale(-1, 1) translate(-13.777383, -43.904700) " xlink:href="#path-8"></use>
                            <polygon fill="#D9D9D9" mask="url(#mask-9)" points="8.20800016 40.2435008 18.3574003 52.4118807 20.9613154 44.9280009 25.9012395 57.4106926 22.3176411 0.925593768"></polygon>
                        </g>
                        <mask id="mask-11" fill="white">
                            <use xlink:href="#path-10"></use>
                        </mask>
                        <use id="Mask" fill="#EBC18F" xlink:href="#path-10"></use>
                    </g>
                    <g id="Group-9" transform="translate(86.147856, 43.635833)">
                        <g id="Path-21">
                            <mask id="mask-13" fill="white">
                                <use xlink:href="#path-12"></use>
                            </mask>
                            <use id="Mask" fill="#D8D8D8" xlink:href="#path-12"></use>
                            <polygon fill="#F6F6F6" mask="url(#mask-13)" points="1.08938464 14.7324146 4.48916778 29.2462561 7.89405945 26.6828581 11.2626341 30.5266846 18.5375794 24.4562454 8.55623792 -1.24896592"></polygon>
                        </g>
                        <g id="Path-21" transform="translate(9.294931, 0.000000)">
                            <mask id="mask-15" fill="white">
                                <use xlink:href="#path-14"></use>
                            </mask>
                            <use id="Mask" fill="#F1F1F1" xlink:href="#path-14"></use>
                            <polygon fill="#FFFFFF" mask="url(#mask-15)" points="5.39748024 24.4474329 7.32899134 26.1569613 10.9226685 30.5266846 11.5396012 27.421245 17.335286 26.1569613 -1.37245209e-13 -2.46822937e-13"></polygon>
                        </g>
                    </g>
                    <g id="Group-5" transform="translate(0.000000, 11.088000)">
                        <g id="Path-21" transform="translate(11.743394, 0.077034)">
                            <mask id="mask-17" fill="white">
                                <use xlink:href="#path-16"></use>
                            </mask>
                            <use id="Mask" fill="#B0B0B0" xlink:href="#path-16"></use>
                            <polygon fill="#E8E8E8" mask="url(#mask-17)" points="32.0465148 18.6623993 26.1508137 49.9165309 33.0276164 45.1566638 33.3545791 49.9165309 40.5633515 47.8416619 42.163436 51.283968 46.0279632 38.531047 46.6550046 -4.14719984"></polygon>
                        </g>
                        <g id="Group-9" transform="translate(13.412000, 97.052002) scale(-1, 1) translate(-13.412000, -97.052002) translate(0.912000, 84.552002)">
                            <g id="Path-21">
                                <mask id="mask-19" fill="white">
                                    <use xlink:href="#path-18"></use>
                                </mask>
                                <use id="Mask" fill="#E4E4E4" xlink:href="#path-18"></use>
                            </g>
                            <g id="Path-21" transform="translate(8.640000, 0.000000)">
                                <mask id="mask-21" fill="white">
                                    <use xlink:href="#path-20"></use>
                                </mask>
                                <use id="Mask" fill="#C8C8C8" xlink:href="#path-20"></use>
                            </g>
                        </g>
                        <g id="Path-21" transform="translate(52.549642, 0.194868)">
                            <mask id="mask-23" fill="white">
                                <use xlink:href="#path-22"></use>
                            </mask>
                            <use id="Mask" fill="#EEEEEE" xlink:href="#path-22"></use>
                            <polygon fill="#FFFFFF" mask="url(#mask-23)" points="1.82193219 32.3529647 2.98759345 39.4627425 9.53749476 54.9503978 14.9565827 42.1997414 23.3502305 46.2423197 22.5549114 33.2495283 6.02255057 -3.59986553"></polygon>
                        </g>
                        <g id="Group-6" transform="translate(13.816000, 22.481140)">
                            <g id="Path-21" transform="translate(0.000000, -0.000000)">
                                <mask id="mask-25" fill="white">
                                    <use xlink:href="#path-24"></use>
                                </mask>
                                <use id="Mask" fill="#D7D7D7" xlink:href="#path-24"></use>
                                <polygon fill="#F6F6F6" mask="url(#mask-25)" points="26.4383989 23.0558361 25.6196298 30.2352434 28.9122483 26.0296482 30.063256 34.3529421 32.388963 30.9106359 38.6077657 6.41905301e-13"></polygon>
                            </g>
                            <g id="Path-21" transform="translate(13.724567, -0.000000)">
                                <mask id="mask-27" fill="white">
                                    <use xlink:href="#path-26"></use>
                                </mask>
                                <use id="Mask" fill="#F6F6F6" xlink:href="#path-26"></use>
                                <polygon fill="#FFFFFF" mask="url(#mask-27)" points="18.934632 20.9822361 18.934632 30.2352434 21.4084813 23.9560482 22.5594891 32.2793422 24.8851961 28.837036 25.6738318 -3.74170682"></polygon>
                            </g>
                        </g>
                    </g>
                    <g id="Group-7" transform="translate(52.425763, 57.088388)">
                        <g id="Path-21" transform="translate(0.000000, 0.436800)">
                            <mask id="mask-29" fill="white">
                                <use xlink:href="#path-28"></use>
                            </mask>
                            <use id="Mask" fill="#D5D5D5" xlink:href="#path-28"></use>
                            <polygon fill="#F6F6F6" mask="url(#mask-29)" points="5.34559401 11.8341807 8.74537716 26.3480222 12.1502688 23.7846242 18.9356885 34.0723651 22.7937887 21.5580115 12.8124473 -4.14719984"></polygon>
                        </g>
                        <g id="Path-21" transform="translate(12.812447, 0.413678)">
                            <mask id="mask-31" fill="white">
                                <use xlink:href="#path-30"></use>
                            </mask>
                            <use id="Mask" fill="#F7F7F7" xlink:href="#path-30"></use>
                            <polygon fill="#FFFFFF" mask="url(#mask-31)" points="5.41023079 19.9767432 5.41023079 29.2297505 11.5523517 28.5379348 11.5523517 22.9505553 17.3480365 21.6862715 -1.97199576 -6.75645566"></polygon>
                        </g>
                    </g>
                </g>
                <polygon id="Path-43" fill="#FFFFFF" points="260.579779 153.257598 294.331037 142.097452 261.007895 124.043593"></polygon>
                <polygon id="Path-43" fill="#FFFFFF" points="34.9857401 130.966299 1.19371172e-13 149.148468 54.0509733 152.012522"></polygon>
                <g id="Path-146-+-Path-146-+-Path-146-+-Path-146-+-Path-146-Mask" transform="translate(36.072756, 140.332510) rotate(-9.000000) translate(-36.072756, -140.332510) translate(15.572756, 133.832510)">
                    <mask id="mask-33" fill="white">
                        <use xlink:href="#path-32"></use>
                    </mask>
                    <use id="Mask" fill="#717171" xlink:href="#path-32"></use>
                    <polygon id="Path-146" fill="#545454" mask="url(#mask-33)" points="1.79719321 7.08067284 19.5075007 12.681432 22.4371907 11.8454378 4.67970897 5.96143276"></polygon>
                    <polygon id="Path-146" fill="#545454" mask="url(#mask-33)" points="6.11719269 5.64067302 23.8275002 11.2414321 26.7571902 10.4054379 8.99970846 4.52143294"></polygon>
                    <polygon id="Path-146" fill="#545454" mask="url(#mask-33)" points="10.4371922 4.20067319 28.1474996 9.80143231 31.0771897 8.9654381 13.3197079 3.08143311"></polygon>
                    <polygon id="Path-146" fill="#545454" mask="url(#mask-33)" points="14.7571917 2.76067336 32.8793667 8.36143248 35.8771891 7.52543827 17.7067427 1.64143328"></polygon>
                    <polygon id="Path-146" fill="#545454" mask="url(#mask-33)" points="19.0771911 1.32067353 37.1993662 6.92143265 40.1971886 6.08543844 22.0267422 0.201433451"></polygon>
                </g>
                <polygon id="Path-89" fill="#434343" points="73.4412773 174.589556 66.0392539 226.499986 78.9357375 190.451512"></polygon>
                <polygon id="Path-90" fill="#454545" points="78.9357375 190.451512 66.0392539 226.499986 110.985931 184.924364"></polygon>
                <polygon id="Path-91" fill="#373737" points="54.5917936 167.480336 66.0392539 226.499986 73.4412773 174.589556"></polygon>
                <polygon id="Path-140" fill="#959595" points="191.385926 224.061574 213.115556 181.175805 195.922967 190.451512"></polygon>
                <polygon id="Path-144" fill="#222222" points="135.658 266.399984 143.626456 329.030557 143.261417 278.927191"></polygon>
                <polygon id="Path-147" fill="#E5E5E5" points="207.382019 108.359993 197.534754 114.140472 193.931385 123.819312 214.708141 134.498283 246.817339 136.971247 253.259458 122.724927 233.130991 114.932607 215.274597 110.399993"></polygon>
                <g id="Group" transform="translate(235.204089, 116.472966) rotate(7.000000) translate(-235.204089, -116.472966) translate(224.204089, 106.972966)">
                    <polygon id="Path-33" fill="#7C7C7C" points="8.488442 15.2555254 18.413725 14.2366973 17.2555305 5.45696789e-13 7.19999957 1.51911355"></polygon>
                    <polygon id="Path-33" fill="#000000" opacity="0.100000001" points="8.488442 15.2555254 18.413725 14.2366973 10.4560195 16.9098236 0.400488536 18.4289371"></polygon>
                    <polygon id="Path-34" fill="#D9D9D9" points="17.2555305 5.45696789e-13 19.65614 1.06251552 21.0549178 13.151034 18.413725 14.2366973"></polygon>
                </g>
                <g id="Group-3" transform="translate(212.985925, 106.199994)">
                    <polygon id="Path-38" fill="#7C7C7C" points="5.99999964 11.1326131 5.99999964 0.856956748 11.8027239 0.272719924 11.8027239 11.1326131"></polygon>
                    <polygon id="Path-38" fill="#000000" opacity="0.100000001" points="5.99999964 11.1326131 0.129631064 13.1999992 5.93235532 12.6157624 11.8027239 11.1326131"></polygon>
                    <polygon id="Path-39" fill="#D9D9D9" points="11.8027239 11.1326131 13.9869064 9.83553159 13.9869064 0.597186152 11.8027239 0.332614412"></polygon>
                </g>
                <g id="Group" transform="translate(226.003344, 122.185153) rotate(7.000000) translate(-226.003344, -122.185153) translate(217.003344, 114.185153)">
                    <polygon id="Path-33" fill="#8D8D8D" points="7.63075349 12.2044196 15.5709794 11.3893571 14.6444239 4.36557431e-12 6.59999961 1.21529077"></polygon>
                    <polygon id="Path-33" fill="#000000" opacity="0.100000001" points="7.63075349 12.2044196 15.5709794 11.3893571 8.23554182 13.999612 0.191117548 15.2149028"></polygon>
                    <polygon id="Path-34" fill="#B1B1B1" points="14.6444239 6.27551307e-12 16.5649114 0.850012365 17.6839335 10.5208266 15.5709794 11.3893571"></polygon>
                </g>
                <g id="Group" transform="translate(238.337668, 126.723949) rotate(7.000000) translate(-238.337668, -126.723949) translate(230.837668, 120.223949)">
                    <polygon id="Path-33" fill="#8D8D8D" points="6.8246027 9.76353512 13.1767831 9.11148517 12.4355387 5.72981628e-12 5.99999964 0.972232556"></polygon>
                    <polygon id="Path-33" fill="#000000" opacity="0.100000001" points="6.8246027 9.76353512 13.1767831 9.11148517 6.90825203 11.0562366 0.472712995 12.0284691"></polygon>
                    <polygon id="Path-34" fill="#B1B1B1" points="12.4355387 6.27551307e-12 13.9719286 0.680009851 14.8671462 8.41666075 13.1767831 9.11148517"></polygon>
                </g>
                <g id="Group-20" transform="translate(195.585926, 101.399994)">
                    <polygon id="Rectangle" fill="#7C7C7C" points="10.1999994 0.719999914 18.8399984 0.719999914 18.8399984 17.9999979 10.1999994 16.9414433"></polygon>
                    <polygon id="Rectangle" fill="#000000" opacity="0.100000001" points="0.337041589 18.5999989 8.97704056 18.5999989 18.8399984 17.9999979 10.1999994 16.9414433"></polygon>
                    <polygon id="Rectangle" fill="#EDEDED" points="10.1999994 0.719999914 18.8399984 0.719999914 22.1218339 0 13.4818349 0"></polygon>
                    <polygon id="Rectangle" fill="#D9D9D9" points="22.1218339 0 18.8399984 0.719999914 18.8399984 17.9999979 22.1218339 17.2799979"></polygon>
                </g>
                <g id="Group-3" transform="translate(202.185925, 112.799993)">
                    <polygon id="Path-38" fill="#8D8D8D" points="8.99999946 12.9599985 8.99999946 0.697217569 16.9199985 0 16.9199985 12.9599985"></polygon>
                    <polygon id="Path-38" fill="#000000" opacity="0.100000001" points="8.99999946 12.9599985 -3.94351195e-14 14.3590411 7.91999906 13.6618235 16.9199985 12.9599985"></polygon>
                    <polygon id="Path-39" fill="#B1B1B1" points="16.9199985 12.9599985 19.7999982 11.4035006 19.7999982 0.317486088 16.9199985 0"></polygon>
                </g>
                <g id="Group-3" transform="translate(172.185927, 127.799992)">
                    <g id="Group-23">
                        <polygon id="Path-38" fill="#9D9D9D" points="0 11.4255182 0 6.1906531 7.91999906 6.1906531 7.91999906 11.9361584"></polygon>
                        <polygon id="Path-39" fill="#AFAFAF" points="7.91999906 11.9361584 16.1400462 7.62794976 16.1400462 3.59999979 7.91999906 6.1906531"></polygon>
                        <polyline id="Path-150" fill="#AFAFAF" points="7.91999906 6.1906531 4.1853106 2.82795005 0 6.1906531"></polyline>
                        <polyline id="Path-151" fill="#D8D8D8" points="4.1853106 2.82795005 12.4108472 0.248799811 16.1400462 3.59999979 7.91999906 6.26124892"></polyline>
                    </g>
                    <g id="Group-23" transform="translate(13.019571, 1.372050)">
                        <polygon id="Path-38" fill="#9D9D9D" points="0 11.4255182 0 6.1906531 7.91999906 6.1906531 7.91999906 11.9361584"></polygon>
                        <polygon id="Path-39" fill="#AFAFAF" points="7.91999906 11.9361584 16.1400462 7.62794976 16.1400462 3.59999979 7.91999906 6.1906531"></polygon>
                        <polyline id="Path-150" fill="#AFAFAF" points="7.91999906 6.1906531 4.1853106 2.82795005 0 6.1906531"></polyline>
                        <polyline id="Path-151" fill="#D8D8D8" points="4.1853106 2.82795005 12.4108472 0.248799811 16.1400462 3.59999979 7.91999906 6.26124892"></polyline>
                    </g>
                </g>
                <polygon id="Path-147" fill="#E5E5E5" points="69.3719832 123.359992 62.5004175 127.117845 55.6621492 137.856353 70.1604741 144.798686 96.8905266 141.959991 101.385931 132.698546 87.339993 127.632808 74.8795394 124.686184"></polygon>
                <g id="Group-3" transform="translate(73.185933, 118.799993)">
                    <polygon id="Path-38" fill="#7C7C7C" points="5.99999964 11.1326131 5.99999964 0.856956748 11.8027239 0.272719924 11.8027239 11.1326131"></polygon>
                    <polygon id="Path-38" fill="#000000" opacity="0.100000001" points="5.99999964 11.1326131 0.129631064 13.1999992 5.93235532 12.6157624 11.8027239 11.1326131"></polygon>
                    <polygon id="Path-39" fill="#D9D9D9" points="11.8027239 11.1326131 13.9869064 9.83553159 13.9869064 0.597186152 11.8027239 0.332614412"></polygon>
                </g>
                <g id="Group" transform="translate(72.561560, 138.798501) rotate(7.000000) translate(-72.561560, -138.798501) translate(63.561560, 130.798501)">
                    <polygon id="Path-33" fill="#8D8D8D" points="7.63075349 12.2044196 15.5709794 11.3893571 14.6444239 4.36557431e-12 6.59999961 1.21529077"></polygon>
                    <polygon id="Path-33" fill="#000000" opacity="0.100000001" points="7.63075349 12.2044196 15.5709794 11.3893571 8.23554182 13.999612 0.191117548 15.2149028"></polygon>
                    <polygon id="Path-34" fill="#B1B1B1" points="14.6444239 6.27551307e-12 16.5649114 0.850012365 17.6839335 10.5208266 15.5709794 11.3893571"></polygon>
                </g>
                <g id="Group" transform="translate(89.061559, 134.298502) rotate(7.000000) translate(-89.061559, -134.298502) translate(81.561559, 127.798502)">
                    <polygon id="Path-33" fill="#8D8D8D" points="6.8246027 9.76353512 13.1767831 9.11148517 12.4355387 5.72981628e-12 5.99999964 0.972232556"></polygon>
                    <polygon id="Path-33" fill="#000000" opacity="0.100000001" points="6.8246027 9.76353512 13.1767831 9.11148517 6.90825203 11.0562366 0.472712995 12.0284691"></polygon>
                    <polygon id="Path-34" fill="#B1B1B1" points="12.4355387 6.27551307e-12 13.9719286 0.680009851 14.8671462 8.41666075 13.1767831 9.11148517"></polygon>
                </g>
                <g id="Group-20" transform="translate(55.640475, 110.999993)">
                    <polygon id="Rectangle" fill="#7C7C7C" points="10.1999994 0.719999914 18.8399984 0.719999914 18.8399984 17.9999979 10.1999994 16.9414433"></polygon>
                    <polygon id="Rectangle" fill="#000000" opacity="0.100000001" points="0.337041589 18.5999989 8.97704056 18.5999989 18.8399984 17.9999979 10.1999994 16.9414433"></polygon>
                    <polygon id="Rectangle" fill="#FFFFFF" points="10.1999994 0.719999914 18.8399984 0.719999914 22.1218339 0 13.4818349 0"></polygon>
                    <polygon id="Rectangle" fill="#D9D9D9" points="22.1218339 0 18.8399984 0.719999914 18.8399984 17.9999979 22.1218339 17.2799979"></polygon>
                </g>
                <g id="Group-3" transform="translate(50.000000, 126.000000)">
                    <polygon id="Path-38" fill="#8D8D8D" points="8.99999946 12.9599985 8.99999946 0.697217569 16.9199985 0 16.9199985 12.9599985"></polygon>
                    <polygon id="Path-38" fill="#000000" opacity="0.100000001" points="8.99999946 12.9599985 -3.94351195e-14 14.3590411 7.91999906 13.6618235 16.9199985 12.9599985"></polygon>
                    <polygon id="Path-39" fill="#B1B1B1" points="16.9199985 12.9599985 19.7999982 11.4035006 19.7999982 0.317486088 16.9199985 0"></polygon>
                </g>
                <polygon id="Path-148" fill="#E5E5E5" points="213.585925 131.999992 191.240753 144.599991 144.432421 136.573823 140.041761 137.743384 192.432418 148.03329 217.580846 132.908976"></polygon>
                <g id="Group-11" transform="translate(274.896252, 135.194485) rotate(-3.000000) translate(-274.896252, -135.194485) translate(269.396252, 127.194485)">
                    <polygon id="Path-93" fill="#B7B7B7" points="4.19507604 7.59841182 4.19507604 15.2598291 5.84993605 14.6023598 5.36710073 7.59841182"></polygon>
                    <polygon id="Path-94" fill="#5E5E5E" points="4.19507604 7.59841182 2.92425728 14.8070073 4.19507604 15.2598291"></polygon>
                    <polygon id="Path-95" fill="#C5C5C5" points="8.61896298e-16 6.36186932 4.19507604 9.09298819 8.51856069 8.31648182 6.35930599 6.36186932"></polygon>
                    <polygon id="Path-96" fill="#D2D2D2" points="6.35930599 6.36186932 10.4247888 5.97253398 8.51856069 8.31648182"></polygon>
                    <polygon id="Path-97" fill="#F3F3F3" points="6.35930599 6.36186932 6.35930599 0 9.11606348 1.52992677 10.4247888 5.97253398"></polygon>
                    <polygon id="Path-98" fill="#E5E5E5" points="6.35930599 0 2.53997912 0.739953577 -3.53012397e-16 6.36186932 6.35930599 6.36186932"></polygon>
                </g>
                <g id="Group-11" transform="translate(264.906856, 139.599444) rotate(-3.000000) translate(-264.906856, -139.599444) translate(260.406856, 132.599444)">
                    <polygon id="Path-93" fill="#B7B7B7" points="3.60776546 6.53463428 3.60776546 13.1234533 5.03094509 12.5580296 4.61570671 6.53463428"></polygon>
                    <polygon id="Path-94" fill="#5E5E5E" points="3.60776546 6.53463428 2.5148613 12.7340265 3.60776546 13.1234533"></polygon>
                    <polygon id="Path-95" fill="#C5C5C5" points="7.41230828e-16 5.4712077 3.60776546 7.81996997 7.32596232 7.15217448 5.46900324 5.4712077"></polygon>
                    <polygon id="Path-96" fill="#D2D2D2" points="5.46900324 5.4712077 8.96531855 5.13637931 7.32596232 7.15217448"></polygon>
                    <polygon id="Path-97" fill="#F3F3F3" points="5.46900324 5.4712077 5.46900324 0 7.83981472 1.31573704 8.96531855 5.13637931"></polygon>
                    <polygon id="Path-98" fill="#E5E5E5" points="5.46900324 0 2.18438208 0.636360087 -3.03590666e-16 5.4712077 5.46900324 5.4712077"></polygon>
                </g>
                <g id="Group-11" transform="translate(255.386197, 132.610460) rotate(-3.000000) translate(-255.386197, -132.610460) translate(251.386197, 126.610460)">
                    <polygon id="Path-93" fill="#B7B7B7" points="3.21091121 5.81582441 3.21091121 11.6798732 4.47754106 11.1766462 4.1079789 5.81582441"></polygon>
                    <polygon id="Path-94" fill="#5E5E5E" points="3.21091121 5.81582441 2.23822652 11.3332834 3.21091121 11.6798732"></polygon>
                    <polygon id="Path-95" fill="#C5C5C5" points="6.59695426e-16 4.86937478 3.21091121 6.95977317 6.52010636 6.36543519 4.86741281 4.86937478"></polygon>
                    <polygon id="Path-96" fill="#D2D2D2" points="4.86741281 4.86937478 7.97913339 4.57137751 6.52010636 6.36543519"></polygon>
                    <polygon id="Path-97" fill="#F3F3F3" points="4.86741281 4.86937478 4.86741281 0 6.97743499 1.17100595 7.97913339 4.57137751"></polygon>
                    <polygon id="Path-98" fill="#E5E5E5" points="4.86741281 0 1.94410002 0.566360468 -2.70195688e-16 4.86937478 4.86741281 4.86937478"></polygon>
                </g>
                <g id="Group-11" transform="translate(253.601486, 140.994347) rotate(-3.000000) translate(-253.601486, -140.994347) translate(249.601486, 134.994347)">
                    <polygon id="Path-93" fill="#B7B7B7" points="3.10267834 5.61978557 3.10267834 11.28617 4.32661285 10.7999057 3.96950783 5.61978557"></polygon>
                    <polygon id="Path-94" fill="#5E5E5E" points="3.10267834 5.61978557 2.16278075 10.951263 3.10267834 11.28617"></polygon>
                    <polygon id="Path-95" fill="#C5C5C5" points="6.37458523e-16 4.7052387 3.10267834 6.72517429 6.3003277 6.15087016 4.70334287 4.7052387"></polygon>
                    <polygon id="Path-96" fill="#D2D2D2" points="4.70334287 4.7052387 7.71017409 4.41728628 6.3003277 6.15087016"></polygon>
                    <polygon id="Path-97" fill="#F3F3F3" points="4.70334287 4.7052387 4.70334287 0 6.74224077 1.13153387 7.71017409 4.41728628"></polygon>
                    <polygon id="Path-98" fill="#E5E5E5" points="4.70334287 0 1.87856862 0.547269684 -2.61087977e-16 4.7052387 4.70334287 4.7052387"></polygon>
                </g>
                <g id="Group-11" transform="translate(248.106857, 149.199443) rotate(-3.000000) translate(-248.106857, -149.199443) translate(243.606857, 142.199443)">
                    <polygon id="Path-93" fill="#B7B7B7" points="3.60776546 6.53463428 3.60776546 13.1234533 5.03094509 12.5580296 4.61570671 6.53463428"></polygon>
                    <polygon id="Path-94" fill="#5E5E5E" points="3.60776546 6.53463428 2.5148613 12.7340265 3.60776546 13.1234533"></polygon>
                    <polygon id="Path-95" fill="#C5C5C5" points="7.41230828e-16 5.4712077 3.60776546 7.81996997 7.32596232 7.15217448 5.46900324 5.4712077"></polygon>
                    <polygon id="Path-96" fill="#D2D2D2" points="5.46900324 5.4712077 8.96531855 5.13637931 7.32596232 7.15217448"></polygon>
                    <polygon id="Path-97" fill="#F3F3F3" points="5.46900324 5.4712077 5.46900324 0 7.83981472 1.31573704 8.96531855 5.13637931"></polygon>
                    <polygon id="Path-98" fill="#E5E5E5" points="5.46900324 0 2.18438208 0.636360087 -3.03590666e-16 5.4712077 5.46900324 5.4712077"></polygon>
                </g>
                <g id="Group-11" transform="translate(237.906858, 147.999443) rotate(-3.000000) translate(-237.906858, -147.999443) translate(233.406858, 140.999443)">
                    <polygon id="Path-93" fill="#B7B7B7" points="3.60776546 6.53463428 3.60776546 13.1234533 5.03094509 12.5580296 4.61570671 6.53463428"></polygon>
                    <polygon id="Path-94" fill="#5E5E5E" points="3.60776546 6.53463428 2.5148613 12.7340265 3.60776546 13.1234533"></polygon>
                    <polygon id="Path-95" fill="#C5C5C5" points="7.41230828e-16 5.4712077 3.60776546 7.81996997 7.32596232 7.15217448 5.46900324 5.4712077"></polygon>
                    <polygon id="Path-96" fill="#D2D2D2" points="5.46900324 5.4712077 8.96531855 5.13637931 7.32596232 7.15217448"></polygon>
                    <polygon id="Path-97" fill="#F3F3F3" points="5.46900324 5.4712077 5.46900324 0 7.83981472 1.31573704 8.96531855 5.13637931"></polygon>
                    <polygon id="Path-98" fill="#E5E5E5" points="5.46900324 0 2.18438208 0.636360087 -3.03590666e-16 5.4712077 5.46900324 5.4712077"></polygon>
                </g>
                <g id="Group-11" transform="translate(228.906859, 152.199443) rotate(-3.000000) translate(-228.906859, -152.199443) translate(224.406859, 145.199443)">
                    <polygon id="Path-93" fill="#B7B7B7" points="3.60776546 6.53463428 3.60776546 13.1234533 5.03094509 12.5580296 4.61570671 6.53463428"></polygon>
                    <polygon id="Path-94" fill="#5E5E5E" points="3.60776546 6.53463428 2.5148613 12.7340265 3.60776546 13.1234533"></polygon>
                    <polygon id="Path-95" fill="#C5C5C5" points="7.41230828e-16 5.4712077 3.60776546 7.81996997 7.32596232 7.15217448 5.46900324 5.4712077"></polygon>
                    <polygon id="Path-96" fill="#D2D2D2" points="5.46900324 5.4712077 8.96531855 5.13637931 7.32596232 7.15217448"></polygon>
                    <polygon id="Path-97" fill="#F3F3F3" points="5.46900324 5.4712077 5.46900324 0 7.83981472 1.31573704 8.96531855 5.13637931"></polygon>
                    <polygon id="Path-98" fill="#E5E5E5" points="5.46900324 0 2.18438208 0.636360087 -3.03590666e-16 5.4712077 5.46900324 5.4712077"></polygon>
                </g>
                <polygon id="Path-149" fill="#E5E5E5" points="97.2978047 131.95277 112.365931 126.388404 121.351863 130.199992 117.58593 131.209009 112.365931 129.170587 98.9859316 134.188807"></polygon>
                <g id="Group-24" transform="translate(92.085933, 158.731924) rotate(-12.000000) translate(-92.085933, -158.731924) translate(86.585933, 154.231924)">
                    <polyline id="Path-153" fill="#717171" points="8.37490173 8.96806587 8.37490173 5.550212 10.5086662 6.78247714"></polyline>
                    <polygon id="Path-152" fill="#717171" points="0.399999857 4.16806616 3.29321258 4.16806616 3.29321258 6.78247714 1.05566388 6.93235784"></polygon>
                    <polygon id="Path-154" fill="#BCBCBC" points="1.30940208 5.10610888 7.0561162 -3.18323146e-12 8.90224619 7.58935502"></polygon>
                    <polygon id="Path-152" fill="#9B9B9B" points="0.399999857 4.16806616 10.5086662 6.81985784 8.37753844 8.96806587 1.05566388 6.93235784"></polygon>
                </g>
                <path d="M88.2444314,162.035159 L95.8269739,162.504627 L90.5064531,163.326406 L88.7501961,162.967159 L85.3037059,163.326406 L86.9551961,162.600159 L84.8561961,162.171479 L88.2444314,162.035159 Z" id="Combined-Shape" fill="#000000" opacity="0.100000001"></path>
                <polygon id="Path-155" fill="#E5E5E5" points="204.518749 146.422033 213.115556 141.267052 225.88074 143.458898 215.833333 149.999991"></polygon>
                <g id="Group" transform="translate(207.685180, 144.312179) rotate(7.000000) translate(-207.685180, -144.312179) translate(202.185180, 139.812179)">
                    <polygon id="Path-33" fill="#9D9D9D" points="4.69175557 6.11677206 9.223748 6.37803951 8.70487693 3.63187127e-12 4.19999968 0.680562778"></polygon>
                    <path d="M4.69175557,6.11677206 L9.223748,6.37803951 L2.83541715,8.22967689 C1.87419445,8.24278716 1.13769283,8.26878056 0.625912302,8.30765707 C0.114131773,8.34653359 0.0157940354,8.38395731 0.330899091,8.41992824 L4.69175557,6.11677206 Z" id="Path-33" fill="#000000" opacity="0.100000001"></path>
                    <polygon id="Path-34" fill="#AFAFAF" points="8.70487693 4.39285907e-12 9.78034983 0.476006888 10.4070022 5.89166242 9.223748 6.37803951"></polygon>
                </g>
                <polygon id="Path-157" fill="#BEBEBE" points="216.144222 145.94992 217.580846 145.158323 218.106432 137.236472 216.849743 137.236472"></polygon>
                <polygon id="Path-156" fill="#979797" points="214.785925 145.94992 215.499948 135.599992 222.285544 135.963639 222.237232 146.422033 220.545924 146.422033 220.594235 137.762845 216.880417 137.36542 216.225485 145.94992"></polygon>
                <polygon id="Path-156" fill="#000000" opacity="0.100000001" points="214.785925 145.94992 209.545146 147.548066 215.665017 148.412593 222.237232 146.422033 220.545924 146.422033 215.665017 147.321955 213.025614 147.10468 216.225485 145.94992"></polygon>
                <polygon id="Path-157" fill="#BEBEBE" points="222.237232 146.422033 223.673857 145.630435 223.542233 135.963639 222.285544 135.963639"></polygon>
                <polygon id="Path-158" fill="#DBDBDB" points="215.499948 135.599992 216.505102 135.423881 223.542233 135.963639 222.285544 135.963639"></polygon>
                <circle id="Oval" fill="#CCCCCC" cx="250.185923" cy="145.199991" r="1"></circle>
                <circle id="Oval" fill="#CCCCCC" cx="246.585923" cy="144.599991" r="1"></circle>
                <circle id="Oval" fill="#CCCCCC" cx="246.585923" cy="146.399991" r="1"></circle>
                <g id="Group-25" opacity="0.300000012" transform="translate(226.571034, 174.487046) rotate(-8.000000) translate(-226.571034, -174.487046) translate(222.571034, 170.987046)" fill="#FFFFFF">
                    <rect id="Rectangle" x="4.22400019" y="2.78400012" width="1.29600006" height="1"></rect>
                    <rect id="Rectangle" x="2.54400011" y="0.720000032" width="1" height="1"></rect>
                    <rect id="Rectangle" x="3.02400014" y="1.00800005" width="1" height="1"></rect>
                    <rect id="Rectangle" x="3.45600015" y="1.29600006" width="1" height="1"></rect>
                    <rect id="Rectangle" x="3.79200017" y="1.68000008" width="1" height="1"></rect>
                    <rect id="Rectangle" x="4.08000018" y="2.06400009" width="1" height="1"></rect>
                    <polygon id="Rectangle" points="2.44800011 1.44000006 2.83200013 1.44000006 2.32832832 2.28865979 1.9443283 2.28865979"></polygon>
                    <polygon id="Rectangle" points="1.84767187 2.44800011 2.23167188 2.44800011 3.01322846 3.26342415 2.62922844 3.26342415"></polygon>
                    <polygon id="Rectangle" points="1.97682418 4.23126729 2.2080001 4.21591756 2.86343743 3.38790237 2.66172431 3.38790237"></polygon>
                    <polygon id="Rectangle" points="0.440671895 0.363140641 2.2560001 0 2.2560001 1.44000006 0.689109406 1.44000006 0 1.00800005"></polygon>
                    <polygon id="Path-164" points="5.01758422 3.38328015 4.41071096 3.71493612 4.20547219 3.63206416 4.75200021 3.36000015"></polygon>
                    <polygon id="Path-165" points="4.19534419 3.74672112 4.16428166 5.10843214 4.37939272 5.23200023 4.43325999 3.95846418"></polygon>
                    <polygon id="Path-166" points="4.03200018 5.33991475 3.16800014 5.40054178 3.35687257 5.23200023 3.94752498 5.23200023"></polygon>
                    <polygon id="Path-167" points="3.98221696 5.44543224 3.52128496 5.76000026 3.35687257 6.6954723 3.66179172 5.85965428"></polygon>
                    <polygon id="Path-168" points="3.75651432 6.04800027 3.70051667 6.86400031 3.91544914 6.04800027 4.22227941 5.45136024"></polygon>
                    <polygon id="Path-168" transform="translate(4.244882, 6.178320) rotate(-12.000000) translate(-4.244882, -6.178320) " points="4.03999782 6.06864027 3.98400018 6.88464031 4.19893264 6.06864027 4.50576291 5.47200024"></polygon>
                    <polygon id="Path-169" points="5.66400025 3.16320014 6.01814271 3.49382416 6.82406431 3.76267217 7.78281635 3.96000018 7.55577634 3.69600017 6.6167043 3.51451216 6.01814271 3.26342415 5.85600026 3.00000013"></polygon>
                    <polygon id="Path-159" points="3.02400014 1.77867195 2.63306262 2.44800011 2.88000013 2.35200011"></polygon>
                    <polygon id="Path-160" points="3.19200014 1.86432993 3.01322846 2.64000012 3.35687257 2.50992199"></polygon>
                    <polygon id="Path-161" points="3.53025841 2.06400009 3.45600015 2.85571213 3.66954476 2.78400012"></polygon>
                    <polygon id="Path-162" points="3.84284887 2.53800011 3.79200017 3.00000013 3.56277246 3.26400015 3.79200017 3.26342415 4.03200018 3.00000013"></polygon>
                </g>
                <g id="Group-25" opacity="0.300000012" transform="translate(37.571045, 161.887046) rotate(-8.000000) translate(-37.571045, -161.887046) translate(33.571045, 158.387046)" fill="#FFFFFF">
                    <rect id="Rectangle" x="4.22400019" y="2.78400012" width="1.29600006" height="1"></rect>
                    <rect id="Rectangle" x="2.54400011" y="0.720000032" width="1" height="1"></rect>
                    <rect id="Rectangle" x="3.02400014" y="1.00800005" width="1" height="1"></rect>
                    <rect id="Rectangle" x="3.45600015" y="1.29600006" width="1" height="1"></rect>
                    <rect id="Rectangle" x="3.79200017" y="1.68000008" width="1" height="1"></rect>
                    <rect id="Rectangle" x="4.08000018" y="2.06400009" width="1" height="1"></rect>
                    <polygon id="Rectangle" points="2.44800011 1.44000006 2.83200013 1.44000006 2.32832832 2.28865979 1.9443283 2.28865979"></polygon>
                    <polygon id="Rectangle" points="1.84767187 2.44800011 2.23167188 2.44800011 3.01322846 3.26342415 2.62922844 3.26342415"></polygon>
                    <polygon id="Rectangle" points="1.97682418 4.23126729 2.2080001 4.21591756 2.86343743 3.38790237 2.66172431 3.38790237"></polygon>
                    <polygon id="Rectangle" points="0.440671895 0.363140641 2.2560001 0 2.2560001 1.44000006 0.689109406 1.44000006 0 1.00800005"></polygon>
                    <polygon id="Path-164" points="5.01758422 3.38328015 4.41071096 3.71493612 4.20547219 3.63206416 4.75200021 3.36000015"></polygon>
                    <polygon id="Path-165" points="4.19534419 3.74672112 4.16428166 5.10843214 4.37939272 5.23200023 4.43325999 3.95846418"></polygon>
                    <polygon id="Path-166" points="4.03200018 5.33991475 3.16800014 5.40054178 3.35687257 5.23200023 3.94752498 5.23200023"></polygon>
                    <polygon id="Path-167" points="3.98221696 5.44543224 3.52128496 5.76000026 3.35687257 6.6954723 3.66179172 5.85965428"></polygon>
                    <polygon id="Path-168" points="3.75651432 6.04800027 3.70051667 6.86400031 3.91544914 6.04800027 4.22227941 5.45136024"></polygon>
                    <polygon id="Path-168" transform="translate(4.244882, 6.178320) rotate(-12.000000) translate(-4.244882, -6.178320) " points="4.03999782 6.06864027 3.98400018 6.88464031 4.19893264 6.06864027 4.50576291 5.47200024"></polygon>
                    <polygon id="Path-169" points="5.66400025 3.16320014 6.01814271 3.49382416 6.82406431 3.76267217 7.78281635 3.96000018 7.55577634 3.69600017 6.6167043 3.51451216 6.01814271 3.26342415 5.85600026 3.00000013"></polygon>
                    <polygon id="Path-159" points="3.02400014 1.77867195 2.63306262 2.44800011 2.88000013 2.35200011"></polygon>
                    <polygon id="Path-160" points="3.19200014 1.86432993 3.01322846 2.64000012 3.35687257 2.50992199"></polygon>
                    <polygon id="Path-161" points="3.53025841 2.06400009 3.45600015 2.85571213 3.66954476 2.78400012"></polygon>
                    <polygon id="Path-162" points="3.84284887 2.53800011 3.79200017 3.00000013 3.56277246 3.26400015 3.79200017 3.26342415 4.03200018 3.00000013"></polygon>
                </g>
                <g id="Group-25" opacity="0.300000012" transform="translate(254.705605, 167.259945) rotate(-37.000000) translate(-254.705605, -167.259945) translate(250.705605, 163.759945)" fill="#FFFFFF">
                    <rect id="Rectangle" x="4.22400019" y="2.78400012" width="1.29600006" height="1"></rect>
                    <rect id="Rectangle" x="2.54400011" y="0.720000032" width="1" height="1"></rect>
                    <rect id="Rectangle" x="3.02400014" y="1.00800005" width="1" height="1"></rect>
                    <rect id="Rectangle" x="3.45600015" y="1.29600006" width="1" height="1"></rect>
                    <rect id="Rectangle" x="3.79200017" y="1.68000008" width="1" height="1"></rect>
                    <rect id="Rectangle" x="4.08000018" y="2.06400009" width="1" height="1"></rect>
                    <polygon id="Rectangle" points="2.44800011 1.44000006 2.83200013 1.44000006 2.32832832 2.28865979 1.9443283 2.28865979"></polygon>
                    <polygon id="Rectangle" points="1.84767187 2.44800011 2.23167188 2.44800011 3.01322846 3.26342415 2.62922844 3.26342415"></polygon>
                    <polygon id="Rectangle" points="1.97682418 4.23126729 2.2080001 4.21591756 2.86343743 3.38790237 2.66172431 3.38790237"></polygon>
                    <polygon id="Rectangle" points="0.440671895 0.363140641 2.2560001 0 2.2560001 1.44000006 0.689109406 1.44000006 0 1.00800005"></polygon>
                    <polygon id="Path-164" points="5.01758422 3.38328015 4.41071096 3.71493612 4.20547219 3.63206416 4.75200021 3.36000015"></polygon>
                    <polygon id="Path-165" points="4.19534419 3.74672112 4.16428166 5.10843214 4.37939272 5.23200023 4.43325999 3.95846418"></polygon>
                    <polygon id="Path-166" points="4.03200018 5.33991475 3.16800014 5.40054178 3.35687257 5.23200023 3.94752498 5.23200023"></polygon>
                    <polygon id="Path-167" points="3.98221696 5.44543224 3.52128496 5.76000026 3.35687257 6.6954723 3.66179172 5.85965428"></polygon>
                    <polygon id="Path-168" points="3.75651432 6.04800027 3.70051667 6.86400031 3.91544914 6.04800027 4.22227941 5.45136024"></polygon>
                    <polygon id="Path-168" transform="translate(4.244882, 6.178320) rotate(-12.000000) translate(-4.244882, -6.178320) " points="4.03999782 6.06864027 3.98400018 6.88464031 4.19893264 6.06864027 4.50576291 5.47200024"></polygon>
                    <polygon id="Path-169" points="5.66400025 3.16320014 6.01814271 3.49382416 6.82406431 3.76267217 7.78281635 3.96000018 7.55577634 3.69600017 6.6167043 3.51451216 6.01814271 3.26342415 5.85600026 3.00000013"></polygon>
                    <polygon id="Path-159" points="3.02400014 1.77867195 2.63306262 2.44800011 2.88000013 2.35200011"></polygon>
                    <polygon id="Path-160" points="3.19200014 1.86432993 3.01322846 2.64000012 3.35687257 2.50992199"></polygon>
                    <polygon id="Path-161" points="3.53025841 2.06400009 3.45600015 2.85571213 3.66954476 2.78400012"></polygon>
                    <polygon id="Path-162" points="3.84284887 2.53800011 3.79200017 3.00000013 3.56277246 3.26400015 3.79200017 3.26342415 4.03200018 3.00000013"></polygon>
                </g>
                <g id="Group-25" opacity="0.300000012" transform="translate(273.989350, 159.096440) rotate(88.000000) translate(-273.989350, -159.096440) translate(269.989350, 155.596440)" fill="#FFFFFF">
                    <rect id="Rectangle" x="4.22400019" y="2.78400012" width="1.29600006" height="1"></rect>
                    <rect id="Rectangle" x="2.54400011" y="0.720000032" width="1" height="1"></rect>
                    <rect id="Rectangle" x="3.02400014" y="1.00800005" width="1" height="1"></rect>
                    <rect id="Rectangle" x="3.45600015" y="1.29600006" width="1" height="1"></rect>
                    <rect id="Rectangle" x="3.79200017" y="1.68000008" width="1" height="1"></rect>
                    <rect id="Rectangle" x="4.08000018" y="2.06400009" width="1" height="1"></rect>
                    <polygon id="Rectangle" points="2.44800011 1.44000006 2.83200013 1.44000006 2.32832832 2.28865979 1.9443283 2.28865979"></polygon>
                    <polygon id="Rectangle" points="1.84767187 2.44800011 2.23167188 2.44800011 3.01322846 3.26342415 2.62922844 3.26342415"></polygon>
                    <polygon id="Rectangle" points="1.97682418 4.23126729 2.2080001 4.21591756 2.86343743 3.38790237 2.66172431 3.38790237"></polygon>
                    <polygon id="Rectangle" points="0.440671895 0.363140641 2.2560001 0 2.2560001 1.44000006 0.689109406 1.44000006 0 1.00800005"></polygon>
                    <polygon id="Path-164" points="5.01758422 3.38328015 4.41071096 3.71493612 4.20547219 3.63206416 4.75200021 3.36000015"></polygon>
                    <polygon id="Path-165" points="4.19534419 3.74672112 4.16428166 5.10843214 4.37939272 5.23200023 4.43325999 3.95846418"></polygon>
                    <polygon id="Path-166" points="4.03200018 5.33991475 3.16800014 5.40054178 3.35687257 5.23200023 3.94752498 5.23200023"></polygon>
                    <polygon id="Path-167" points="3.98221696 5.44543224 3.52128496 5.76000026 3.35687257 6.6954723 3.66179172 5.85965428"></polygon>
                    <polygon id="Path-168" points="3.75651432 6.04800027 3.70051667 6.86400031 3.91544914 6.04800027 4.22227941 5.45136024"></polygon>
                    <polygon id="Path-168" transform="translate(4.244882, 6.178320) rotate(-12.000000) translate(-4.244882, -6.178320) " points="4.03999782 6.06864027 3.98400018 6.88464031 4.19893264 6.06864027 4.50576291 5.47200024"></polygon>
                    <polygon id="Path-169" points="5.66400025 3.16320014 6.01814271 3.49382416 6.82406431 3.76267217 7.78281635 3.96000018 7.55577634 3.69600017 6.6167043 3.51451216 6.01814271 3.26342415 5.85600026 3.00000013"></polygon>
                    <polygon id="Path-159" points="3.02400014 1.77867195 2.63306262 2.44800011 2.88000013 2.35200011"></polygon>
                    <polygon id="Path-160" points="3.19200014 1.86432993 3.01322846 2.64000012 3.35687257 2.50992199"></polygon>
                    <polygon id="Path-161" points="3.53025841 2.06400009 3.45600015 2.85571213 3.66954476 2.78400012"></polygon>
                    <polygon id="Path-162" points="3.84284887 2.53800011 3.79200017 3.00000013 3.56277246 3.26400015 3.79200017 3.26342415 4.03200018 3.00000013"></polygon>
                </g>
                <g id="Group-25" opacity="0.300000012" transform="translate(129.341188, 177.730168) scale(1, -1) rotate(-22.000000) translate(-129.341188, -177.730168) translate(125.341188, 174.230168)" fill="#FFFFFF">
                    <rect id="Rectangle" x="4.22400019" y="2.78400012" width="1.29600006" height="1"></rect>
                    <rect id="Rectangle" x="2.54400011" y="0.720000032" width="1" height="1"></rect>
                    <rect id="Rectangle" x="3.02400014" y="1.00800005" width="1" height="1"></rect>
                    <rect id="Rectangle" x="3.45600015" y="1.29600006" width="1" height="1"></rect>
                    <rect id="Rectangle" x="3.79200017" y="1.68000008" width="1" height="1"></rect>
                    <rect id="Rectangle" x="4.08000018" y="2.06400009" width="1" height="1"></rect>
                    <polygon id="Rectangle" points="2.44800011 1.44000006 2.83200013 1.44000006 2.32832832 2.28865979 1.9443283 2.28865979"></polygon>
                    <polygon id="Rectangle" points="1.84767187 2.44800011 2.23167188 2.44800011 3.01322846 3.26342415 2.62922844 3.26342415"></polygon>
                    <polygon id="Rectangle" points="1.97682418 4.23126729 2.2080001 4.21591756 2.86343743 3.38790237 2.66172431 3.38790237"></polygon>
                    <polygon id="Rectangle" points="0.440671895 0.363140641 2.2560001 0 2.2560001 1.44000006 0.689109406 1.44000006 0 1.00800005"></polygon>
                    <polygon id="Path-164" points="5.01758422 3.38328015 4.41071096 3.71493612 4.20547219 3.63206416 4.75200021 3.36000015"></polygon>
                    <polygon id="Path-165" points="4.19534419 3.74672112 4.16428166 5.10843214 4.37939272 5.23200023 4.43325999 3.95846418"></polygon>
                    <polygon id="Path-166" points="4.03200018 5.33991475 3.16800014 5.40054178 3.35687257 5.23200023 3.94752498 5.23200023"></polygon>
                    <polygon id="Path-167" points="3.98221696 5.44543224 3.52128496 5.76000026 3.35687257 6.6954723 3.66179172 5.85965428"></polygon>
                    <polygon id="Path-168" points="3.75651432 6.04800027 3.70051667 6.86400031 3.91544914 6.04800027 4.22227941 5.45136024"></polygon>
                    <polygon id="Path-168" transform="translate(4.244882, 6.178320) rotate(-12.000000) translate(-4.244882, -6.178320) " points="4.03999782 6.06864027 3.98400018 6.88464031 4.19893264 6.06864027 4.50576291 5.47200024"></polygon>
                    <polygon id="Path-169" points="5.66400025 3.16320014 6.01814271 3.49382416 6.82406431 3.76267217 7.78281635 3.96000018 7.55577634 3.69600017 6.6167043 3.51451216 6.01814271 3.26342415 5.85600026 3.00000013"></polygon>
                    <polygon id="Path-159" points="3.02400014 1.77867195 2.63306262 2.44800011 2.88000013 2.35200011"></polygon>
                    <polygon id="Path-160" points="3.19200014 1.86432993 3.01322846 2.64000012 3.35687257 2.50992199"></polygon>
                    <polygon id="Path-161" points="3.53025841 2.06400009 3.45600015 2.85571213 3.66954476 2.78400012"></polygon>
                    <polygon id="Path-162" points="3.84284887 2.53800011 3.79200017 3.00000013 3.56277246 3.26400015 3.79200017 3.26342415 4.03200018 3.00000013"></polygon>
                </g>
                <g id="Group-25" opacity="0.5" transform="translate(93.230674, 182.869810) scale(1, -1) rotate(-202.000000) translate(-93.230674, -182.869810) translate(89.230674, 179.369810)" fill="#FFFFFF">
                    <rect id="Rectangle" x="4.22400019" y="2.78400012" width="1.29600006" height="1"></rect>
                    <rect id="Rectangle" x="2.54400011" y="0.720000032" width="1" height="1"></rect>
                    <rect id="Rectangle" x="3.02400014" y="1.00800005" width="1" height="1"></rect>
                    <rect id="Rectangle" x="3.45600015" y="1.29600006" width="1" height="1"></rect>
                    <rect id="Rectangle" x="3.79200017" y="1.68000008" width="1" height="1"></rect>
                    <rect id="Rectangle" x="4.08000018" y="2.06400009" width="1" height="1"></rect>
                    <polygon id="Rectangle" points="2.44800011 1.44000006 2.83200013 1.44000006 2.32832832 2.28865979 1.9443283 2.28865979"></polygon>
                    <polygon id="Rectangle" points="1.84767187 2.44800011 2.23167188 2.44800011 3.01322846 3.26342415 2.62922844 3.26342415"></polygon>
                    <polygon id="Rectangle" points="1.97682418 4.23126729 2.2080001 4.21591756 2.86343743 3.38790237 2.66172431 3.38790237"></polygon>
                    <polygon id="Rectangle" points="0.440671895 0.363140641 2.2560001 0 2.2560001 1.44000006 0.689109406 1.44000006 0 1.00800005"></polygon>
                    <polygon id="Path-164" points="5.01758422 3.38328015 4.41071096 3.71493612 4.20547219 3.63206416 4.75200021 3.36000015"></polygon>
                    <polygon id="Path-165" points="4.19534419 3.74672112 4.16428166 5.10843214 4.37939272 5.23200023 4.43325999 3.95846418"></polygon>
                    <polygon id="Path-166" points="4.03200018 5.33991475 3.16800014 5.40054178 3.35687257 5.23200023 3.94752498 5.23200023"></polygon>
                    <polygon id="Path-167" points="3.98221696 5.44543224 3.52128496 5.76000026 3.35687257 6.6954723 3.66179172 5.85965428"></polygon>
                    <polygon id="Path-168" points="3.75651432 6.04800027 3.70051667 6.86400031 3.91544914 6.04800027 4.22227941 5.45136024"></polygon>
                    <polygon id="Path-168" transform="translate(4.244882, 6.178320) rotate(-12.000000) translate(-4.244882, -6.178320) " points="4.03999782 6.06864027 3.98400018 6.88464031 4.19893264 6.06864027 4.50576291 5.47200024"></polygon>
                    <polygon id="Path-169" points="5.66400025 3.16320014 6.01814271 3.49382416 6.82406431 3.76267217 7.78281635 3.96000018 7.55577634 3.69600017 6.6167043 3.51451216 6.01814271 3.26342415 5.85600026 3.00000013"></polygon>
                    <polygon id="Path-159" points="3.02400014 1.77867195 2.63306262 2.44800011 2.88000013 2.35200011"></polygon>
                    <polygon id="Path-160" points="3.19200014 1.86432993 3.01322846 2.64000012 3.35687257 2.50992199"></polygon>
                    <polygon id="Path-161" points="3.53025841 2.06400009 3.45600015 2.85571213 3.66954476 2.78400012"></polygon>
                    <polygon id="Path-162" points="3.84284887 2.53800011 3.79200017 3.00000013 3.56277246 3.26400015 3.79200017 3.26342415 4.03200018 3.00000013"></polygon>
                </g>
            </g>
            <g id="Group-12" transform="translate(121.000000, 12.012001)">
                <polygon id="Path-99" fill="#FFFFFF" points="28.4773873 8.14959743 23.4754713 16.6930429 29.8739675 19.9435635 36.173198 19.9435635 36.7633786 16.934739 30.8810647 8.95330957"></polygon>
                <polygon id="Path-100" fill="#FCFBF6" points="36.7633786 16.934739 36.7633786 24.8442784 33.87763 27.1911688 25.8986409 27.4683548 29.8739675 19.9435635 36.173198 19.9435635"></polygon>
                <polygon id="Path-101" fill="#F2F2F2" points="29.8739675 19.9435635 23.4754713 16.6930429 18.0079082 22.2015469 25.8986409 27.4683548"></polygon>
                <polygon id="Path-102" fill="#BCBCBC" points="18.0079082 22.2015469 23.4754713 16.6930429 28.4773873 8.14959743"></polygon>
                <polygon id="Path-103" fill="#FFFFFF" points="36.7633786 24.8442784 35.0731518 28.1591749 33.87763 27.1911688"></polygon>
                <polygon id="Path-104" fill="#F4F4F4" points="33.87763 27.1911688 25.5167381 34.19271 31.859826 30.9119341 35.0731518 28.1591749"></polygon>
                <polygon id="Path-105" fill="#FAFAFA" points="25.8986409 27.4683548 25.5167381 34.19271 33.87763 27.1911688"></polygon>
                <polygon id="Path-106" fill="#D8D8D8" points="18.0079082 22.2015469 18.878199 32.1389306 25.8986409 27.4683548"></polygon>
                <polygon id="Path-107" fill="#E9E9E9" points="18.878199 32.1389306 25.5167381 34.2782045 25.8986409 27.4683548"></polygon>
                <polygon id="Path-108" fill="#D8D8D8" points="18.0079082 22.0806989 14.1937533 27.7236099 18.878199 32.1389306"></polygon>
                <polygon id="Path-109" fill="#D8D8D8" points="17.2094498 19.4463394 18.0079082 22.2015469 23.2426477 15.1755722"></polygon>
                <polygon id="Path-110" fill="#F2F2F2" points="15.7758705 9.29364963 17.2094498 19.4463394 23.2426477 15.1755722"></polygon>
                <polygon id="Path-111" fill="#D8D8D8" points="15.7758705 9.29364963 23.2426477 15.1755722 26.6720122 10.7512879 21.2239413 9.29364963"></polygon>
                <polygon id="Path-127" fill="#E1E1E1" points="12.1166931 2.99481053 21.2239413 0 15.7758705 6.73400118"></polygon>
                <polygon id="Path-112" fill="#FDFCF7" points="21.2239413 9.29364963 26.3848631 7.36117329 28.4773873 8.14959743 26.6720122 10.7512879"></polygon>
                <polygon id="Path-113" fill="#EAEAEA" points="21.2239413 9.29364963 27.8444321 4.66047482 27.1587758 7.66729735"></polygon>
                <polyline id="Path-114" fill="#FFFFFF" points="21.2239413 9.29364963 22.38842 4.89780286 21.2239413 0 27.8444321 4.66047482"></polyline>
                <polygon id="Path-115" fill="#EAEAEA" points="21.2239413 0 16.8845798 2.23405039 22.38842 4.89780286"></polygon>
                <polygon id="Path-116" fill="#F0F0F0" points="16.8845798 2.23405039 14.9238987 6.54963515 18.878199 9.29364963 21.2239413 9.29364963 22.38842 4.89780286"></polygon>
                <polyline id="Path-117" fill="#D8D8D8" points="15.0657587 6.48466114 13.5945034 9.54298968 15.7758705 9.54298968 18.878199 9.29364963"></polyline>
                <polygon id="Path-118" fill="#C1C1C1" points="13.5945034 9.54298968 13.5945034 10.7512879 15.7758705 9.54298968"></polygon>
                <polygon id="Path-119" fill="#D5D5D5" points="17.2094498 19.4463394 12.6437621 11.204104 15.7758705 9.29364963"></polygon>
                <polygon id="Path-120" fill="#D8D8D8" points="12.6437621 11.204104 12.6437621 19.4463394 17.2094498 19.4463394"></polygon>
                <polygon id="Path-121" fill="#CBCBCB" points="12.6437621 19.4463394 14.1937533 27.7236099 18.0079082 22.2015469 17.2094498 19.4463394"></polygon>
                <polygon id="Path-122" fill="#ADADAD" points="21.2239413 32.7581858 17.4724141 33.7967234 18.0079082 31.2197395"></polygon>
                <polygon id="Path-123" fill="#C5C5C5" points="17.4724141 33.7967234 12.2699811 28.5929785 8.51874256 19.4463394 14.3987373 25.8509728 18.0079082 31.2197395"></polygon>
                <polygon id="Path-124" fill="#DBDBDB" points="10.5624957 14.0465805 8.45751567 19.4463394 15.7758705 27.9456499"></polygon>
                <polygon id="Path-125" fill="#DDDDDD" points="10.5624957 14.0465805 13.8735758 9.05623059 12.6437621 19.9435635"></polygon>
                <polygon id="Path-133" fill="#C2C2C2" points="2.99014177 10.4611798 4.08614338 9.05623059 9.75065892 9.69884995"></polygon>
                <polygon id="Path-126" fill="#CFCFCF" points="12.1166931 2.99481053 12.6437621 4.89780286 15.7758705 6.73400118"></polygon>
                <polygon id="Path-128" fill="#9E9E9E" points="12.6437621 4.89780286 8.76463317 8.64827752 10.5624957 14.499897 15.7758705 6.48466114"></polygon>
                <polygon id="Path-129" fill="#BEBEBE" points="8.76463317 8.64827752 7.23959386 11.204104 6.88155998 13.7075144 7.77756965 15.8465608 10.7366847 14.0465805"></polygon>
                <polygon id="Path-130" fill="#EBEBEB" points="7.85010587 15.3252217 6.44316589 20.4946596 11.6884637 24.8442784 10.8266556 12.7378182"></polygon>
                <polygon id="Path-131" stroke="#979797" stroke-width="0.910000035" points="7.65213371 10.7512879 2.99014177 14.8896046 6.82705401 16.6930429"></polygon>
                <polygon id="Path-132" fill="#D8D8D8" points="3.11198442 14.9232746 2.99014177 10.4611798 9.06581479 9.69884995"></polygon>
                <polygon id="Path-134" fill="#A6A6A6" points="2.99014177 10.4611798 0 16.934739 4.31030372 14.0465805"></polygon>
                <polygon id="Path-135" fill="#C4C4C4" points="-1.51016771e-14 16.934739 3.26858688 25.8005975 10.3166306 26.6215314"></polygon>
                <polygon id="Path-136" fill="#E8E8E8" points="5.22661777 21.8976068 5.32113774 19.4463394 6.82705401 20.4946596 9.93259825 28.5929785 6.82705401 25.8005975"></polygon>
                <polygon id="Path-137" fill="#C0C0C0" points="9.93259825 28.8475056 12.6437621 28.5929785 11.093771 23.2399481 6.59840072 20.4946596"></polygon>
                <polygon id="Path-138" fill="#CFCFCF" points="0 16.934739 9.06581479 9.54298968 6.82705401 23.5849746"></polygon>
            </g>
            <g id="Group-12" transform="translate(163.588003, 0.000000)">
                <polygon id="Path-99" fill="#FFFFFF" points="56.9547745 16.2378274 46.9509426 33.2603852 59.7479351 39.7369496 72.3463959 39.7369496 73.5267571 33.7419573 61.7621294 17.8391996"></polygon>
                <polygon id="Path-100" fill="#FCFBF6" points="73.5267571 33.7419573 73.5267571 49.5014763 67.7552601 54.1775848 51.7972819 54.7298696 59.7479351 39.7369496 72.3463959 39.7369496"></polygon>
                <polygon id="Path-101" fill="#F2F2F2" points="59.7479351 39.7369496 46.9509426 33.2603852 36.0158165 44.2359135 51.7972819 54.7298696"></polygon>
                <polygon id="Path-102" fill="#BCBCBC" points="36.0158165 44.2359135 46.9509426 33.2603852 56.9547745 16.2378274"></polygon>
                <polygon id="Path-103" fill="#FFFFFF" points="73.5267571 49.5014763 70.1463037 56.1063077 67.7552601 54.1775848"></polygon>
                <polygon id="Path-104" fill="#F4F4F4" points="67.7552601 54.1775848 51.0334763 68.1279448 63.719652 61.5910975 70.1463037 56.1063077"></polygon>
                <polygon id="Path-105" fill="#FAFAFA" points="51.7972819 54.7298696 51.0334763 68.1279448 67.7552601 54.1775848"></polygon>
                <polygon id="Path-106" fill="#D8D8D8" points="36.0158165 44.2359135 37.756398 64.0358513 51.7972819 54.7298696"></polygon>
                <polygon id="Path-107" fill="#E9E9E9" points="37.756398 64.0358513 51.0334763 68.29829 51.7972819 54.7298696"></polygon>
                <polygon id="Path-108" fill="#D8D8D8" points="36.0158165 43.9951274 28.3875066 55.2384576 37.756398 64.0358513"></polygon>
                <polygon id="Path-109" fill="#D8D8D8" points="34.4188996 38.7462456 36.0158165 44.2359135 46.4852955 30.2368704"></polygon>
                <polygon id="Path-110" fill="#F2F2F2" points="31.5517409 18.517317 34.4188996 38.7462456 46.4852955 30.2368704"></polygon>
                <polygon id="Path-111" fill="#D8D8D8" points="31.5517409 18.517317 46.4852955 30.2368704 53.3440243 21.4216173 42.4478826 18.517317"></polygon>
                <polygon id="Path-127" fill="#E1E1E1" points="24.2333861 5.96706977 42.4478826 0 31.5517409 13.4172945"></polygon>
                <polygon id="Path-112" fill="#FDFCF7" points="42.4478826 18.517317 52.7697263 14.6669161 56.9547745 16.2378274 53.3440243 21.4216173"></polygon>
                <polygon id="Path-113" fill="#EAEAEA" points="42.4478826 18.517317 55.6888642 9.2858557 54.3175516 15.276859"></polygon>
                <polyline id="Path-114" fill="#FFFFFF" points="42.4478826 18.517317 44.77684 9.75872467 42.4478826 0 55.6888642 9.2858557"></polyline>
                <polygon id="Path-115" fill="#EAEAEA" points="42.4478826 0 33.7691595 4.45127812 44.77684 9.75872467"></polygon>
                <polygon id="Path-116" fill="#F0F0F0" points="33.7691595 4.45127812 29.8477975 13.0499508 37.756398 18.517317 42.4478826 18.517317 44.77684 9.75872467"></polygon>
                <polyline id="Path-117" fill="#D8D8D8" points="30.1315173 12.920492 27.1890068 19.0141195 31.5517409 19.0141195 37.756398 18.517317"></polyline>
                <polygon id="Path-118" fill="#C1C1C1" points="27.1890068 19.0141195 27.1890068 21.4216173 31.5517409 19.0141195"></polygon>
                <polygon id="Path-119" fill="#D5D5D5" points="34.4188996 38.7462456 25.2875243 22.3238397 31.5517409 18.517317"></polygon>
                <polygon id="Path-120" fill="#D8D8D8" points="25.2875243 22.3238397 25.2875243 38.7462456 34.4188996 38.7462456"></polygon>
                <polygon id="Path-121" fill="#CBCBCB" points="25.2875243 38.7462456 28.3875066 55.2384576 36.0158165 44.2359135 34.4188996 38.7462456"></polygon>
                <polygon id="Path-122" fill="#ADADAD" points="42.4478826 65.2696984 34.9448282 67.3389534 36.0158165 62.2043906"></polygon>
                <polygon id="Path-123" fill="#C5C5C5" points="34.9448282 67.3389534 24.5399622 56.9706485 17.0374851 38.7462456 28.7974745 51.5072847 36.0158165 62.2043906"></polygon>
                <polygon id="Path-124" fill="#DBDBDB" points="21.1249915 27.9873885 16.9150313 38.7462456 31.5517409 55.6808657"></polygon>
                <polygon id="Path-125" fill="#DDDDDD" points="21.1249915 27.9873885 27.7471516 18.0442667 25.2875243 39.7369496"></polygon>
                <polygon id="Path-133" fill="#C2C2C2" points="5.98028355 20.8435857 8.17228677 18.0442667 19.5013178 19.3246664"></polygon>
                <polygon id="Path-126" fill="#CFCFCF" points="24.2333861 5.96706977 25.2875243 9.75872467 31.5517409 13.4172945"></polygon>
                <polygon id="Path-128" fill="#9E9E9E" points="25.2875243 9.75872467 17.5292663 17.2314325 21.1249915 28.8906081 31.5517409 12.920492"></polygon>
                <polygon id="Path-129" fill="#BEBEBE" points="17.5292663 17.2314325 14.4791877 22.3238397 13.76312 27.3118096 15.5551393 31.5737951 21.4733693 27.9873885"></polygon>
                <polygon id="Path-130" fill="#EBEBEB" points="15.7002117 30.5350426 12.8863318 40.8349919 23.3769274 49.5014763 21.6533112 25.3797192"></polygon>
                <polygon id="Path-131" stroke="#979797" stroke-width="0.910000035" points="15.3042674 21.4216173 5.98028355 29.6670887 13.654108 33.2603852"></polygon>
                <polygon id="Path-132" fill="#D8D8D8" points="6.22396884 29.7341752 5.98028355 20.8435857 18.1316296 19.3246664"></polygon>
                <polygon id="Path-134" fill="#A6A6A6" points="5.98028355 20.8435857 0 33.7419573 8.62060745 27.9873885"></polygon>
                <polygon id="Path-135" fill="#C4C4C4" points="-3.02033542e-14 33.7419573 6.53717377 51.4069135 20.6332612 53.0425995"></polygon>
                <polygon id="Path-136" fill="#E8E8E8" points="10.4532355 43.6303221 10.6422755 38.7462456 13.654108 40.8349919 19.8651965 56.9706485 13.654108 51.4069135"></polygon>
                <polygon id="Path-137" fill="#C0C0C0" points="19.8651965 57.4777859 25.2875243 56.9706485 22.187542 46.3048966 13.1968014 40.8349919"></polygon>
                <polygon id="Path-138" fill="#CFCFCF" points="0 33.7419573 18.1316296 19.0141195 13.654108 46.9923516"></polygon>
            </g>
        </g>
    </g>
</svg>