<?xml version="1.0" encoding="UTF-8"?>
<svg width="813px" height="788px" viewBox="0 0 813 788" version="1.1" xmlns="http://www.w3.org/2000/svg" xmlns:xlink="http://www.w3.org/1999/xlink">
    <!-- Generator: Sketch 61.2 (89653) - https://sketch.com -->
    <title>Group</title>
    <desc>Created with Sketch.</desc>
    <defs>
        <linearGradient x1="95.9306092%" y1="32.0242407%" x2="28.8883528%" y2="57.1696956%" id="linearGradient-1">
            <stop stop-color="#81C0FF" offset="0%"></stop>
            <stop stop-color="#B0DEFF" offset="100%"></stop>
        </linearGradient>
    </defs>
    <g id="Page-1" stroke="none" stroke-width="1" fill="none" fill-rule="evenodd">
        <g id="Group">
            <polygon id="Path-2" fill="#729327" points="174.663064 431.399367 279.762311 447.860964 309.969229 489.903012 390.3808 466.426957 455.217245 451.344482 538.094452 455.599293 560.806127 455.599293 606.954244 466.426957 636.660557 455.599293 751.264155 451.344482 812.519612 409.760617 756.541225 376.285642 756.541225 365.424939 740.488985 361.540352 728.271601 349.24837 580.858994 304.857435 514.682876 282.069333 190.767468 333.59122 120.436003 354.276783 0 431.399367"></polygon>
            <polygon id="Path" fill="#AE8D66" points="397.872934 0 218.156191 357.67725 401.782268 376.285642"></polygon>
            <polygon id="Path-170" fill="#FFFFFF" points="397.872934 5.41633593e-14 348.126918 208.150322 358.595918 216.483255 375.336772 252.16383 386.211424 215.39616 400.99703 231.302656"></polygon>
            <polygon id="Path-170" fill="#DBF9FC" points="397.872934 -5.68434189e-14 348.126918 208.150322 332.071883 256.793347 327.707517 218.924493 296.583706 200.425632"></polygon>
            <polygon id="Path" fill="#D7AF7E" points="332.605409 123.110449 125.045724 363.554666 362.12469 376.285642"></polygon>
            <polygon id="Path-21" fill="#DBF9FC" points="219.482596 253.661835 218.156191 265.292475 280.032947 221.086251 299.433741 273.851468 300.264039 281.205558 330.352447 129.061565"></polygon>
            <polygon id="Path-21" fill="#FFFFFF" points="314.404101 184.459067 300.701821 280.111422 304.709457 269.939126 343.460675 248.553587 347.22832 242.977051 331.633272 123"></polygon>
            <polygon id="Path-5" fill="#729327" points="353.475854 539.993278 438.848092 590.900263 499.438997 518.651995 421.647235 506.085753"></polygon>
            <polygon id="Path-5" fill="#410A0A" points="222.077225 521.693166 368.040368 787.31511 438.848092 590.900263 290.248606 487.785642"></polygon>
            <polygon id="Path-5" fill="#491A05" points="535.586397 518.651995 368.040368 787.31511 438.848092 590.900263 499.438997 518.106023"></polygon>
            <polygon id="Path-5" fill="#451308" points="645.681695 518.651995 590.946924 649.704517 492.037112 518.106023"></polygon>
            <polygon id="Path-5" fill="#572109" points="259.404565 496.221425 136.597133 590.900263 53.0772248 495.785642"></polygon>
            <polygon id="Path-5" fill="#491B06" points="186.316765 475.025681 207.597133 651.900263 143.931311 468.74256"></polygon>
            <polygon id="Path-5" fill="#572109" points="186.316765 475.025681 207.597133 651.900263 264.044595 502.217803"></polygon>
            <polygon id="Path-5" fill="#451906" points="602.367182 496.221425 697.478107 637.550376 758.449463 536.600152"></polygon>
            <polygon id="Path-5" fill="#729327" points="688.336268 518.362649 758.449463 536.600152 753.688318 507.892761 713.03251 499.611895"></polygon>
            <polygon id="Path" fill="#AE8D66" points="459.248731 3.78564164 538.094452 285.696775 393.077225 296.083214"></polygon>
            <polygon id="Path-170" fill="#BED8DA" points="459.248731 3.78564164 511.670547 191.107974 446.350199 198.572999 424.246484 212.442966 418.636909 184.487775"></polygon>
            <polygon id="Path" fill="#D1A97A" points="418.636909 122.785642 367.12219 389.075052 362.12469 369.707502"></polygon>
            <polygon id="Path-3" fill="#652E1C" points="0 431.399367 0 489.903012 13.8669399 506.085753 173.460256 506.085753 174.054353 431.399367"></polygon>
            <polygon id="Path-4" fill="#7F3C28" points="173.460256 506.122137 279.762311 518.651995 279.762311 447.860964 174.054353 430.913705"></polygon>
            <polygon id="Path" fill="#F4D1A7" points="455.217245 27.8859047 541.718976 287.940616 451.045739 369.220652"></polygon>
            <polygon id="Path-170" fill="#FFFFFF" points="455.217245 28 453.405234 179.929975 465.585839 171.565055 482.326692 207.24563 493.201344 170.477961 507.986951 186.384456"></polygon>
            <polygon id="Path-170" fill="#FFFFFF" points="418.636909 123.110449 401.782268 212.442966 410.209589 198.553278 415.114009 223.842414 420.957289 209.650986 432.985833 236.187572"></polygon>
            <polygon id="Path-4" fill="#652E1C" points="279.762311 518.651995 309.969229 556.574642 309.969229 489.903012 279.762311 447.860964"></polygon>
            <polygon id="Path" fill="#D1A97A" points="455.217245 27.8859047 410.754421 260.53821 451.045739 369.220652"></polygon>
            <polygon id="Path-170" fill="#DBF9FC" points="455.217245 28 453.405234 179.929975 437.350199 228.572999 432.985833 190.704146 424.246484 190.704146"></polygon>
            <polygon id="Path" fill="#F4D1A7" points="418.636909 122.785642 367.12219 389.075052 448.156191 375.960835"></polygon>
            <polygon id="Path-4" fill="#552516" transform="translate(350.175014, 511.500799) scale(-1, 1) translate(-350.175014, -511.500799) " points="312.657545 530.448023 390.3808 556.574642 390.3808 489.903012 309.969229 466.426957"></polygon>
            <polygon id="Path-4" fill="#7F3C28" transform="translate(421.454864, 490.896252) scale(-1, 1) translate(-421.454864, -490.896252) " points="388.938495 518.651995 455.217245 530.448023 452.528929 466.426957 387.692484 451.344482"></polygon>
            <polygon id="Path-4" fill="#6C301D" points="453.971234 518.651995 535.586397 525.515647 538.094452 455.599293 455.217245 451.344482"></polygon>
            <polygon id="Path-4" fill="#552516" transform="translate(548.196262, 491.265193) scale(-1, 1) translate(-548.196262, -491.265193) " points="540.628425 526.931094 560.806127 525.515647 558.298072 455.599293 535.586397 455.599293"></polygon>
            <polygon id="Path-4" fill="#6C301D" points="555.764099 526.931094 599.094255 536.843556 606.954244 466.426957 560.806127 455.599293"></polygon>
            <polygon id="Path-4" fill="#552516" transform="translate(617.877406, 496.221425) scale(-1, 1) translate(-617.877406, -496.221425) " points="601.08861 528.880044 636.660557 536.843556 628.800568 466.426957 599.094255 455.599293"></polygon>
            <polygon id="Path-4" fill="#6C301D" points="634.666203 528.880044 748.222774 518.362649 751.264155 451.344482 636.660557 455.599293"></polygon>
            <polygon id="Path-4" fill="#552516" points="807.01772 477.484165 748.222774 518.362649 751.264155 451.344482 812.519612 409.760617"></polygon>
            <polygon id="Path-6" fill="url(#linearGradient-1)" points="284.786699 440.359555 311.602693 478.78748 393.077225 453.732874 458.591009 440.359555 485.656057 358.347046 429.670783 396.79889 344.815516 408.794186"></polygon>
            <polygon id="Path-7" fill="#B6740C" points="317.193916 413.000336 326.534403 406.783937 481.476659 411.582282 479.718987 418.567263"></polygon>
            <polygon id="Path-170" fill="#FFFFFF" points="418.636909 123.110449 401.782268 212.442966 410.209589 198.553278 415.114009 223.842414 420.957289 209.650986 432.985833 236.187572"></polygon>
            <polygon id="Path-170" fill="#DBF9FC" points="418.636909 123.110449 401.782268 212.442966 401.782268 202.431233 399.230024 207.255024"></polygon>
        </g>
    </g>
</svg>