<?xml version="1.0" encoding="UTF-8"?>
<svg width="226px" height="285px" viewBox="0 0 226 285" version="1.1" xmlns="http://www.w3.org/2000/svg" xmlns:xlink="http://www.w3.org/1999/xlink">
    <!-- Generator: Sketch 61.2 (89653) - https://sketch.com -->
    <title>Group 10</title>
    <desc>Created with Sketch.</desc>
    <defs>
        <linearGradient x1="62.8811635%" y1="38.0967506%" x2="39.7862738%" y2="92.3918597%" id="linearGradient-1">
            <stop stop-color="#FFF7D8" offset="0%"></stop>
            <stop stop-color="#FFFFFF" stop-opacity="0" offset="100%"></stop>
        </linearGradient>
        <radialGradient cx="49.246893%" cy="66.2270585%" fx="49.246893%" fy="66.2270585%" r="162.685241%" gradientTransform="translate(0.492469,0.662271),scale(0.300426,1.000000),rotate(-42.863180),translate(-0.492469,-0.662271)" id="radialGradient-2">
            <stop stop-color="#83A632" offset="0%"></stop>
            <stop stop-color="#9CCA37" offset="100%"></stop>
        </radialGradient>
        <polygon id="path-3" points="5.96855852e-15 6.60094128 15.7190811 11.1750034 35.8204858 4.72237453 20.1815947 -7.75912608e-14"></polygon>
        <polygon id="path-5" points="5.96855852e-15 6.60094128 15.7190811 11.1750034 35.8204858 4.72237453 20.1815947 -7.75912608e-14"></polygon>
        <linearGradient x1="95.9306092%" y1="38.6171284%" x2="28.8883528%" y2="54.5400989%" id="linearGradient-7">
            <stop stop-color="#81C0FF" offset="0%"></stop>
            <stop stop-color="#B0DEFF" offset="100%"></stop>
        </linearGradient>
        <polygon id="path-8" points="2.32057574e-13 -4.29736248e-15 15.638085 56.3762096 3.13639787 61.8524847 2.50851887 49.2142909"></polygon>
        <polygon id="path-10" points="3.65025102 1.28920874e-14 19.288336 56.3762096 10.1223077 61.4665789 -4.08249435e-14 60.107471"></polygon>
        <polygon id="path-12" points="4.23136104 7.7195179 36.0965731 83.9406714 0.293878597 86.1756818"></polygon>
        <polygon id="path-14" points="1.69985879 31.4510544 6.50645137 5.15683467e-15 21.1814383 51.4523957 7.60633113e-14 49.390748"></polygon>
        <polygon id="path-16" points="-1.1602878e-13 5.15683467e-15 21.7162719 48.4765561 14.6749869 51.4523957"></polygon>
        <polygon id="path-18" points="6.66091184e-14 74.1819548 32.604307 0.167836359 28.6668245 78.6240002"></polygon>
        <polygon id="path-20" points="1.01991521 10.2249996 6.3230706 0.0117469084 12.7088622 17.3793251 0 16.6418896"></polygon>
        <polygon id="path-22" points="-1.90993873e-13 0.0117469084 10.6105624 16.3148902 6.38579161 17.3793251"></polygon>
        <polygon id="path-24" points="4.03993399 0.0853521261 35.905146 76.3065056 0.102451549 78.541516"></polygon>
        <polygon id="path-26" points="27.0268335 2.16587056e-13 9.6071965 63.7196826 -1.28920867e-14 62.5602646"></polygon>
        <polygon id="path-28" points="17.4196369 2.16587056e-13 17.4196369 62.9476574 -4.2543886e-14 63.7196826"></polygon>
        <polygon id="path-30" points="8.96871296 1.65018709e-13 0 46.1784239 28.5843463 47.7013103"></polygon>
        <polygon id="path-32" points="0 0.0161850798 19.6156334 47.7174954 24.2872507 43.9530675"></polygon>
        <linearGradient x1="100%" y1="58.1138487%" x2="0%" y2="50%" id="linearGradient-34">
            <stop stop-color="#B5E150" offset="0%"></stop>
            <stop stop-color="#93BB3B" offset="100%"></stop>
        </linearGradient>
        <polygon id="path-35" points="4.77484653e-15 5.28075271 12.5752641 8.94000221 28.656387 3.7778994 16.1452748 -6.20730049e-14"></polygon>
    </defs>
    <g id="Page-1" stroke="none" stroke-width="1" fill="none" fill-rule="evenodd">
        <g id="Intro" transform="translate(-721.000000, -176.000000)">
            <g id="Group-4">
                <g id="Group-10" transform="translate(721.000000, 176.000000)">
                    <g id="Group-2" transform="translate(23.000000, 0.000000)">
                        <circle id="Oval" fill="url(#linearGradient-1)" opacity="0.400000006" cx="101.149998" cy="110.949998" r="101.149998"></circle>
                        <g id="Group-12" transform="translate(67.199999, 8.408401)">
                            <polygon id="Path-99" fill="#FFFFFF" points="19.9341707 5.7047181 16.4328296 11.6851299 20.9117769 13.9604942 25.3212381 13.9604942 25.7343646 11.8543171 21.6167449 6.26731659"></polygon>
                            <polygon id="Path-100" fill="#FCFBF6" points="25.7343646 11.8543171 25.7343646 17.3909946 23.7143406 19.0338178 18.1290484 19.227848 20.9117769 13.9604942 25.3212381 13.9604942"></polygon>
                            <polygon id="Path-101" fill="#F2F2F2" points="20.9117769 13.9604942 16.4328296 11.6851299 12.6055355 15.5410826 18.1290484 19.227848"></polygon>
                            <polygon id="Path-102" fill="#BCBCBC" points="12.6055355 15.5410826 16.4328296 11.6851299 19.9341707 5.7047181"></polygon>
                            <polygon id="Path-103" fill="#FFFFFF" points="25.7343646 17.3909946 24.5512059 19.7114221 23.7143406 19.0338178"></polygon>
                            <polygon id="Path-104" fill="#F4F4F4" points="23.7143406 19.0338178 17.8617164 23.9348966 22.3018778 21.6383535 24.5512059 19.7114221"></polygon>
                            <polygon id="Path-105" fill="#FAFAFA" points="18.1290484 19.227848 17.8617164 23.9348966 23.7143406 19.0338178"></polygon>
                            <polygon id="Path-106" fill="#D8D8D8" points="12.6055355 15.5410826 13.2147391 22.4972511 18.1290484 19.227848"></polygon>
                            <polygon id="Path-107" fill="#E9E9E9" points="13.2147391 22.4972511 17.8617164 23.9947428 18.1290484 19.227848"></polygon>
                            <polygon id="Path-108" fill="#D8D8D8" points="12.6055355 15.456489 9.93562712 19.4065266 13.2147391 22.4972511"></polygon>
                            <polygon id="Path-109" fill="#D8D8D8" points="12.0466147 13.6124374 12.6055355 15.5410826 16.2698531 10.6229003"></polygon>
                            <polygon id="Path-110" fill="#F2F2F2" points="11.0431091 6.50555463 12.0466147 13.6124374 16.2698531 10.6229003"></polygon>
                            <polygon id="Path-111" fill="#D8D8D8" points="11.0431091 6.50555463 16.2698531 10.6229003 18.6704082 7.52590139 14.8567587 6.50555463"></polygon>
                            <polygon id="Path-127" fill="#E1E1E1" points="8.481685 2.09636733 14.8567587 0 11.0431091 4.71380075"></polygon>
                            <polygon id="Path-112" fill="#FDFCF7" points="14.8567587 6.50555463 18.4694039 5.15282122 19.9341707 5.7047181 18.6704082 7.52590139"></polygon>
                            <polygon id="Path-113" fill="#EAEAEA" points="14.8567587 6.50555463 19.4911021 3.26233232 19.0111427 5.36710805"></polygon>
                            <polyline id="Path-114" fill="#FFFFFF" points="14.8567587 6.50555463 15.6718937 3.42846194 14.8567587 0 19.4911021 3.26233232"></polyline>
                            <polygon id="Path-115" fill="#EAEAEA" points="14.8567587 0 11.8192056 1.56383525 15.6718937 3.42846194"></polygon>
                            <polygon id="Path-116" fill="#F0F0F0" points="11.8192056 1.56383525 10.4467289 4.58474453 13.2147391 6.50555463 14.8567587 6.50555463 15.6718937 3.42846194"></polygon>
                            <polyline id="Path-117" fill="#D8D8D8" points="10.5460309 4.53926272 9.51615221 6.68009266 11.0431091 6.68009266 13.2147391 6.50555463"></polyline>
                            <polygon id="Path-118" fill="#C1C1C1" points="9.51615221 6.68009266 9.51615221 7.52590139 11.0431091 6.68009266"></polygon>
                            <polygon id="Path-119" fill="#D5D5D5" points="12.0466147 13.6124374 8.85063335 7.84287264 11.0431091 6.50555463"></polygon>
                            <polygon id="Path-120" fill="#D8D8D8" points="8.85063335 7.84287264 8.85063335 13.6124374 12.0466147 13.6124374"></polygon>
                            <polygon id="Path-121" fill="#CBCBCB" points="8.85063335 13.6124374 9.93562712 19.4065266 12.6055355 15.5410826 12.0466147 13.6124374"></polygon>
                            <polygon id="Path-122" fill="#ADADAD" points="14.8567587 22.9307296 12.2306897 23.657706 12.6055355 21.8538173"></polygon>
                            <polygon id="Path-123" fill="#C5C5C5" points="12.2306897 23.657706 8.58898662 20.0150846 5.96311969 13.6124374 10.0791159 18.0956807 12.6055355 21.8538173"></polygon>
                            <polygon id="Path-124" fill="#DBDBDB" points="7.3937469 9.83260616 5.92026087 13.6124374 11.0431091 19.5619546"></polygon>
                            <polygon id="Path-125" fill="#DDDDDD" points="7.3937469 9.83260616 9.71150289 6.33936131 8.85063335 13.9604942"></polygon>
                            <polygon id="Path-133" fill="#C2C2C2" points="2.09309921 7.32282576 2.86030032 6.33936131 6.82546113 6.78919485"></polygon>
                            <polygon id="Path-126" fill="#CFCFCF" points="8.481685 2.09636733 8.85063335 3.42846194 11.0431091 4.71380075"></polygon>
                            <polygon id="Path-128" fill="#9E9E9E" points="8.85063335 3.42846194 6.13524312 6.05379416 7.3937469 10.1499278 11.0431091 4.53926272"></polygon>
                            <polygon id="Path-129" fill="#BEBEBE" points="6.13524312 6.05379416 5.06771562 7.84287264 4.81709191 9.59525992 5.44429866 11.0925924 7.51567913 9.83260616"></polygon>
                            <polygon id="Path-130" fill="#EBEBEB" points="5.49507402 10.727655 4.51021605 14.3462615 8.18192444 17.3909946 7.5786588 8.91647261"></polygon>
                            <polygon id="Path-131" stroke="#979797" stroke-width="0.637000013" points="5.35649351 7.52590139 2.09309921 10.4227231 4.77893772 11.6851299"></polygon>
                            <polygon id="Path-132" fill="#D8D8D8" points="2.17838906 10.4462921 2.09309921 7.32282576 6.34607024 6.78919485"></polygon>
                            <polygon id="Path-134" fill="#A6A6A6" points="2.09309921 7.32282576 0 11.8543171 3.01721256 9.83260616"></polygon>
                            <polygon id="Path-135" fill="#C4C4C4" points="-1.05711738e-14 11.8543171 2.28801078 18.060418 7.2216413 18.6350717"></polygon>
                            <polygon id="Path-136" fill="#E8E8E8" points="3.65863238 15.3283245 3.72479636 13.6124374 4.77893772 14.3462615 6.95281866 20.0150846 4.77893772 18.060418"></polygon>
                            <polygon id="Path-137" fill="#C0C0C0" points="6.95281866 20.1932536 8.85063335 20.0150846 7.76563957 16.2679634 4.61888043 14.3462615"></polygon>
                            <polygon id="Path-138" fill="#CFCFCF" points="0 11.8543171 6.34607024 6.68009266 4.77893772 16.509482"></polygon>
                        </g>
                        <g id="Group-12" transform="translate(97.011601, 0.000000)">
                            <polygon id="Path-99" fill="#FFFFFF" points="39.8683415 11.366479 32.8656592 23.2822693 41.8235539 27.8158642 50.6424763 27.8158642 51.4687291 23.6193697 43.2334899 12.4874395"></polygon>
                            <polygon id="Path-100" fill="#FCFBF6" points="51.4687291 23.6193697 51.4687291 34.6510328 47.4286812 37.9243087 36.2580967 38.3109081 41.8235539 27.8158642 50.6424763 27.8158642"></polygon>
                            <polygon id="Path-101" fill="#F2F2F2" points="41.8235539 27.8158642 32.8656592 23.2822693 25.2110711 30.9651389 36.2580967 38.3109081"></polygon>
                            <polygon id="Path-102" fill="#BCBCBC" points="25.2110711 30.9651389 32.8656592 23.2822693 39.8683415 11.366479"></polygon>
                            <polygon id="Path-103" fill="#FFFFFF" points="51.4687291 34.6510328 49.1024117 39.2744147 47.4286812 37.9243087"></polygon>
                            <polygon id="Path-104" fill="#F4F4F4" points="47.4286812 37.9243087 35.7234328 47.6895605 44.6037557 43.1137675 49.1024117 39.2744147"></polygon>
                            <polygon id="Path-105" fill="#FAFAFA" points="36.2580967 38.3109081 35.7234328 47.6895605 47.4286812 37.9243087"></polygon>
                            <polygon id="Path-106" fill="#D8D8D8" points="25.2110711 30.9651389 26.4294782 44.8250951 36.2580967 38.3109081"></polygon>
                            <polygon id="Path-107" fill="#E9E9E9" points="26.4294782 44.8250951 35.7234328 47.8088022 36.2580967 38.3109081"></polygon>
                            <polygon id="Path-108" fill="#D8D8D8" points="25.2110711 30.7965887 19.8712542 38.6669197 26.4294782 44.8250951"></polygon>
                            <polygon id="Path-109" fill="#D8D8D8" points="24.0932293 27.1223714 25.2110711 30.9651389 32.5397063 21.165809"></polygon>
                            <polygon id="Path-110" fill="#F2F2F2" points="22.0862183 12.9621217 24.0932293 27.1223714 32.5397063 21.165809"></polygon>
                            <polygon id="Path-111" fill="#D8D8D8" points="22.0862183 12.9621217 32.5397063 21.165809 37.3408164 14.9951318 29.7135173 12.9621217"></polygon>
                            <polygon id="Path-127" fill="#E1E1E1" points="16.96337 4.17694877 29.7135173 0 22.0862183 9.39210601"></polygon>
                            <polygon id="Path-112" fill="#FDFCF7" points="29.7135173 12.9621217 36.9388078 10.2668411 39.8683415 11.366479 37.3408164 14.9951318"></polygon>
                            <polygon id="Path-113" fill="#EAEAEA" points="29.7135173 12.9621217 38.9822043 6.50009888 38.0222855 10.6938011"></polygon>
                            <polyline id="Path-114" fill="#FFFFFF" points="29.7135173 12.9621217 31.3437874 6.83110716 29.7135173 0 38.9822043 6.50009888"></polyline>
                            <polygon id="Path-115" fill="#EAEAEA" points="29.7135173 0 23.6384113 3.11589463 31.3437874 6.83110716"></polygon>
                            <polygon id="Path-116" fill="#F0F0F0" points="23.6384113 3.11589463 20.8934579 9.13496538 26.4294782 12.9621217 29.7135173 12.9621217 31.3437874 6.83110716"></polygon>
                            <polyline id="Path-117" fill="#D8D8D8" points="21.0920618 9.04434424 19.0323044 13.3098834 22.0862183 13.3098834 26.4294782 12.9621217"></polyline>
                            <polygon id="Path-118" fill="#C1C1C1" points="19.0323044 13.3098834 19.0323044 14.9951318 22.0862183 13.3098834"></polygon>
                            <polygon id="Path-119" fill="#D5D5D5" points="24.0932293 27.1223714 17.7012667 15.6266875 22.0862183 12.9621217"></polygon>
                            <polygon id="Path-120" fill="#D8D8D8" points="17.7012667 15.6266875 17.7012667 27.1223714 24.0932293 27.1223714"></polygon>
                            <polygon id="Path-121" fill="#CBCBCB" points="17.7012667 27.1223714 19.8712542 38.6669197 25.2110711 30.9651389 24.0932293 27.1223714"></polygon>
                            <polygon id="Path-122" fill="#ADADAD" points="29.7135173 45.6887881 24.4613793 47.1372666 25.2110711 43.5430727"></polygon>
                            <polygon id="Path-123" fill="#C5C5C5" points="24.4613793 47.1372666 17.1779732 39.8794533 11.9262394 27.1223714 20.1582318 36.0550987 25.2110711 43.5430727"></polygon>
                            <polygon id="Path-124" fill="#DBDBDB" points="14.7874938 19.5911716 11.8405217 27.1223714 22.0862183 38.9766053"></polygon>
                            <polygon id="Path-125" fill="#DDDDDD" points="14.7874938 19.5911716 19.4230058 12.6309865 17.7012667 27.8158642"></polygon>
                            <polygon id="Path-133" fill="#C2C2C2" points="4.18619841 14.5905098 5.72060064 12.6309865 13.6509223 13.5272662"></polygon>
                            <polygon id="Path-126" fill="#CFCFCF" points="16.96337 4.17694877 17.7012667 6.83110716 22.0862183 9.39210601"></polygon>
                            <polygon id="Path-128" fill="#9E9E9E" points="17.7012667 6.83110716 12.2704862 12.0620025 14.7874938 20.2234253 22.0862183 9.04434424"></polygon>
                            <polygon id="Path-129" fill="#BEBEBE" points="12.2704862 12.0620025 10.1354312 15.6266875 9.63418381 19.1182664 10.8885973 22.1016562 15.0313583 19.5911716"></polygon>
                            <polygon id="Path-130" fill="#EBEBEB" points="10.990148 21.3745295 9.02043209 28.5844939 16.3638489 34.6510328 15.1573176 17.7658031"></polygon>
                            <polygon id="Path-131" stroke="#979797" stroke-width="0.637000013" points="10.712987 14.9951318 4.18619841 20.7669617 9.55787545 23.2822693"></polygon>
                            <polygon id="Path-132" fill="#D8D8D8" points="4.35677812 20.8139223 4.18619841 14.5905098 12.6921405 13.5272662"></polygon>
                            <polygon id="Path-134" fill="#A6A6A6" points="4.18619841 14.5905098 0 23.6193697 6.03442511 19.5911716"></polygon>
                            <polygon id="Path-135" fill="#C4C4C4" points="-2.11423476e-14 23.6193697 4.57602156 35.9848388 14.4432826 37.129819"></polygon>
                            <polygon id="Path-136" fill="#E8E8E8" points="7.31726475 30.5412249 7.44959271 27.1223714 9.55787545 28.5844939 13.9056373 39.8794533 9.55787545 35.9848388"></polygon>
                            <polygon id="Path-137" fill="#C0C0C0" points="13.9056373 40.2344495 17.7012667 39.8794533 15.5312791 32.413427 9.23776086 28.5844939"></polygon>
                            <polygon id="Path-138" fill="#CFCFCF" points="0 23.6193697 12.6921405 13.3098834 9.55787545 32.8946455"></polygon>
                        </g>
                    </g>
                    <g id="Group-26" transform="translate(0.000000, 47.000000)">
                        <polygon id="Path-77" fill="#5F2F1E" transform="translate(164.420144, 171.989987) scale(-1, 1) translate(-164.420144, -171.989987) " points="155.390144 142.721224 173.450143 205.799984 162.8608 138.179989"></polygon>
                        <polygon id="Path-78" fill="#6C3825" transform="translate(157.700144, 171.326053) scale(-1, 1) translate(-157.700144, -171.326053) " points="159.669209 205.136051 166.310144 139.138769 149.090145 137.516056"></polygon>
                        <polygon id="Path-142" fill="#391606" points="163.790144 122.212687 182.31567 117.511695 170.910045 168.839987"></polygon>
                        <polyline id="Path-143" fill="#260E01" points="170.910045 168.839987 156.650144 136.330222 163.685964 122.212687"></polyline>
                        <polygon id="Path-141" fill="#572109" points="174.141871 154.676992 182.705523 117.983452 164.800974 122.421487"></polygon>
                        <polygon id="Path" fill="#80442F" points="174.141871 154.676992 206.031722 110.144281 182.31567 117.983452"></polygon>
                        <polygon id="Path-52" fill="#783E2A" points="161.270144 121.305491 163.255389 120.959991 163.790144 156.659988"></polygon>
                        <polygon id="Path-49" fill="#924D35" points="182.31567 111.087386 178.512291 129.434156 173.499242 116.042733"></polygon>
                        <polygon id="Path-50" fill="#924D35" points="163.242585 124.496057 163.790144 157.247441 173.499242 122.938799"></polygon>
                        <polygon id="Path-83" fill="#260101" points="140.690145 110.039992 147.97835 110.039992 153.290145 114.64071 149.424876 123.479991 142.871734 118.52944"></polygon>
                        <polygon id="Path-51" fill="#B6B6B6" points="163.790144 157.096793 160.430144 165.899987 160.430144 107.099992"></polygon>
                        <polygon id="Path-58" fill="#A05337" points="126.410147 129.926525 133.868525 157.079988 104.570148 127.25999"></polygon>
                        <polygon id="Path-73" fill="#4F0B0B" points="144.890145 143.396056 123.784922 211.85605 115.910147 191.631471 115.910147 161.725102"></polygon>
                        <polygon id="Path-81" fill="#260101" points="123.669483 211.204312 107.510148 181.045935 111.710148 141.716056"></polygon>
                        <polygon id="Path-59" fill="#742D0D" points="149.180887 126.823061 153.290145 126.176057 139.850146 162.155165 131.222509 167.579987 134.026327 156.622895"></polygon>
                        <polygon id="Path-65" fill="#3F1C0F" points="76.0101504 129.326057 66.4725828 181.649986 94.0246217 128.696057"></polygon>
                        <polygon id="Path-60" fill="#572109" points="104.570148 127.25999 126.27517 186.479986 133.970146 156.843099"></polygon>
                        <polygon id="Path-61" fill="#80442F" points="101.537905 118.859991 96.3351754 165.596297 120.950147 168.839987"></polygon>
                        <polygon id="Path-87" fill="#260101" points="85.2501497 111.719991 98.6901487 114.124404 94.4222015 121.379991"></polygon>
                        <polygon id="Path-85" fill="#572109" points="77.6901503 129.116057 81.89015 168.072312 76.8737342 169.679987 60.0501516 121.750195 60.7518016 110.879992"></polygon>
                        <polygon id="Path-62" fill="#783E2A" points="102.187748 115.649727 76.8501504 171.359987 96.3351754 165.596297"></polygon>
                        <polygon id="Path-86" fill="#924D35" points="77.6901503 129.116057 98.5792774 126.823061 81.1193658 163.379987"></polygon>
                        <polygon id="Path-66" fill="#4F0B0B" points="72.0999988 158.899997 79.6114927 205.519994 82.599998 166.791434"></polygon>
                        <polygon id="Path-67" fill="#572109" points="79.3701502 205.976051 91.1301493 174.050457 82.3689337 167.336054"></polygon>
                        <polygon id="Path-64" fill="#572109" points="68.030151 138.179989 48.7093322 182.858826 70.9701508 149.214532"></polygon>
                        <polygon id="Path-65" fill="#81452E" points="59.675679 130.376057 66.4725828 181.649986 77.6901503 129.746057"></polygon>
                        <polygon id="Path-69" fill="#6C3825" points="48.7093322 182.858826 69.2901509 136.252362 32.2107983 131.636056"></polygon>
                        <polygon id="Path-70" fill="#783E2A" points="41.990153 113.023621 53.1376172 94.0799928 58.3461216 95.7014748 69.2901509 119.279991"></polygon>
                        <polygon id="Path-51" fill="#A05337" points="163.790144 157.096793 160.430144 165.899987 160.430144 107.099992"></polygon>
                        <polygon id="Path-82" fill="#260101" points="131.599998 182.842992 136.68634 189.839995 144.619997 182.125995 139.317486 159.599997"></polygon>
                        <polygon id="Path-72" fill="#4F0B0B" points="139.850146 161.699988 145.986247 200.759985 156.650144 163.287919"></polygon>
                        <polygon id="Path-55" fill="#783E2A" points="139.850146 161.897067 160.430144 165.64189 160.430144 124.73999 153.290145 125.917959"></polygon>
                        <polygon id="Path-71" fill="#81452E" points="1.76170107e-13 115.079991 46.2274769 158.549988 38.1371455 116.877522"></polygon>
                        <polygon id="Path-80" fill="#4F0B0B" points="82.7301499 166.840684 100.790149 231.596049 91.9701492 163.379987"></polygon>
                        <polyline id="Path-81" fill="#260101" points="100.56984 238.139982 107.510148 208.067911 99.9501486 167.579987"></polyline>
                        <polygon id="Path-77" fill="#5F2F1E" points="90.5799974 163.343931 112.979997 228.619992 100.252724 160.999997"></polygon>
                        <polygon id="Path-78" fill="#6C3825" points="110.529212 228.656049 116.594903 168.103866 99.9501486 161.036054"></polygon>
                        <polygon id="Path-78" fill="#7B3D27" points="110.450148 228.656049 120.950147 168.839987 116.594903 168.103866"></polygon>
                        <polygon id="Path-79" fill="#6D3B29" points="82.7301499 166.840684 101.526584 197.202809 91.9701492 163.379987"></polygon>
                        <polygon id="Path-43" fill="#89452E" points="37.8356807 110.188764 5.6701306e-14 108.183925 5.6701306e-14 115.079991 38.2142549 117.236233"></polygon>
                        <polygon id="Path-43" fill="#985138" points="77.6901503 122.424761 55.2550153 126.41999 55.2550153 133.341889 77.6901503 129.561889"></polygon>
                        <polygon id="Path-43" fill="#8D4A32" points="98.5792774 119.926995 77.6901503 122.43522 77.6901503 129.561889 98.5792774 126.823061"></polygon>
                        <polygon id="Path-43" fill="#6B311F" points="126.053106 123.278091 119.057276 122.446704 119.219635 129.561889 126.053106 130.19999"></polygon>
                        <polygon id="Path-43" fill="#89452E" points="119.219336 122.639991 98.5792774 119.674869 98.5792774 126.823061 119.219336 129.561889"></polygon>
                        <polygon id="Path-43" fill="#7A3924" points="137.146075 126.41999 125.990147 123.059991 126.053106 130.19999 137.146075 133.341889"></polygon>
                        <polygon id="Path-43" fill="#89452E" points="137.146075 126.41999 149.117928 119.849228 149.180887 126.823061 137.145357 133.316056"></polygon>
                        <polygon id="Path-43" fill="#985138" points="173.499242 116.069228 149.117928 119.849228 149.180887 126.823061 173.499242 122.824961"></polygon>
                        <polygon id="Path-43" fill="#89452E" points="173.499242 116.069228 182.642564 110.869285 182.705523 117.956956 173.499242 122.849991"></polygon>
                        <polygon id="Path-43" fill="#985138" points="206.031722 103.248215 182.642564 110.869285 182.705523 117.983452 206.031722 110.144281"></polygon>
                        <polygon id="Path-43" fill="#5F2A1A" points="37.5986617 109.978519 38.2142549 117.236233 51.4088932 122.320302 51.4088932 115.316621"></polygon>
                        <polygon id="Path-43" fill="#6B311F" points="51.4088932 115.316621 51.4088932 122.212687 55.2550153 133.341889 55.2550153 126.41999"></polygon>
                        <polygon id="Path-43" fill="#5E8700" points="37.8356807 106.408764 -1.79056756e-14 104.403925 -1.79056756e-14 108.183925 38.2142549 110.340167"></polygon>
                        <polygon id="Path-43" fill="#5E8700" points="77.6901503 118.644761 55.2550153 122.639991 55.2550153 126.41999 77.6901503 122.639991"></polygon>
                        <polygon id="Path-43" fill="#5E8700" points="98.5792774 116.146996 77.6901503 118.65522 77.6901503 122.639991 98.5792774 119.926995"></polygon>
                        <polygon id="Path-43" fill="#5E8700" points="119.219336 118.859991 98.5792774 115.894869 98.5792774 119.879639 119.219336 122.639991"></polygon>
                        <polygon id="Path-43" fill="#5E8700" points="126.053106 119.498091 119.057276 118.666705 119.219635 122.639991 126.053106 123.278091"></polygon>
                        <polygon id="Path-92" fill="#572109" points="126.410147 129.956057 133.867807 156.651887 137.145357 133.097956"></polygon>
                        <polygon id="Path-43" fill="#5E8700" points="137.146075 122.639991 125.990147 119.279991 126.053106 123.278091 137.146075 126.41999"></polygon>
                        <polygon id="Path-43" fill="#5E8700" points="137.146075 122.639991 149.117928 116.069228 149.180887 120.067329 137.146075 126.41999"></polygon>
                        <polygon id="Path-43" fill="#5E8700" points="173.499242 112.289229 149.117928 116.069228 149.180887 120.067329 173.499242 116.069228"></polygon>
                        <polygon id="Path-43" fill="#5E8700" points="173.499242 112.289229 182.642564 107.089285 182.705523 111.087386 173.499242 116.069228"></polygon>
                        <polygon id="Path-43" fill="#5E8700" points="206.031722 99.468215 182.642564 107.089285 182.705523 111.087386 206.031722 103.248215"></polygon>
                        <polygon id="Path-43" fill="#5E8700" points="37.5986617 106.19852 38.2142549 110.340167 51.4088932 115.316621 51.4088932 111.536621"></polygon>
                        <polygon id="Path-43" fill="#5E8700" points="51.4088932 111.536621 51.4088932 115.316621 55.2550153 126.41999 55.2550153 122.639991"></polygon>
                        <polygon id="Path-43" fill="url(#radialGradient-2)" points="88.1347138 68.1001374 51.4088932 83.5682024 34.6106223 89.1949962 24.4900177 91.6764074 37.8356807 106.408764 51.4088932 111.536621 55.2550153 122.639991 76.5089671 118.915655 98.5792774 116.146996 119.180997 118.915655 125.930782 119.52471 137.146075 122.639991 149.180887 116.146996 173.499242 112.262733 182.405842 107.280317 206.031722 99.468215 182.705523 86.8305137 168.370913 79.6793404 150.140145 76.086259 130.400146 71.9275351"></polygon>
                        <g id="Path-146-+-Path-146-+-Path-146-+-Path-146-+-Path-146-Mask" transform="translate(117.277603, 106.923738)">
                            <mask id="mask-4" fill="white">
                                <use xlink:href="#path-3"></use>
                            </mask>
                            <use id="Mask" fill="#742D0D" xlink:href="#path-3"></use>
                            <polygon id="Path-146" fill="#572109" mask="url(#mask-4)" points="1.57254412 6.195589 17.0690638 11.0962534 19.6325427 10.3647585 4.09474552 5.21625389"></polygon>
                            <polygon id="Path-146" fill="#572109" mask="url(#mask-4)" points="5.35254383 4.9355891 20.8490635 9.83625354 23.4125424 9.10475858 7.87474523 3.95625399"></polygon>
                            <polygon id="Path-146" fill="#572109" mask="url(#mask-4)" points="9.13254354 3.6755892 24.6290632 8.57625363 27.1925422 7.84475867 11.6547449 2.69625408"></polygon>
                            <polygon id="Path-146" fill="#572109" mask="url(#mask-4)" points="12.9125433 2.41558929 28.7694471 7.31625373 31.3925418 6.58475877 15.4934005 1.43625418"></polygon>
                            <polygon id="Path-146" fill="#572109" mask="url(#mask-4)" points="16.692543 1.15558939 32.5494468 6.05625383 35.1725415 5.32475887 19.2734002 0.176254277"></polygon>
                        </g>
                        <g id="Path-146-+-Path-146-+-Path-146-+-Path-146-+-Path-146-Mask" transform="translate(99.530149, 101.219992)">
                            <mask id="mask-6" fill="white">
                                <use xlink:href="#path-5"></use>
                            </mask>
                            <use id="Mask" fill="#742D0D" xlink:href="#path-5"></use>
                            <polygon id="Path-146" fill="#572109" mask="url(#mask-6)" points="1.57254412 6.195589 17.0690638 11.0962534 19.6325427 10.3647585 4.09474552 5.21625389"></polygon>
                            <polygon id="Path-146" fill="#572109" mask="url(#mask-6)" points="5.35254383 4.9355891 20.8490635 9.83625354 23.4125424 9.10475858 7.87474523 3.95625399"></polygon>
                            <polygon id="Path-146" fill="#572109" mask="url(#mask-6)" points="9.13254354 3.6755892 24.6290632 8.57625363 27.1925422 7.84475867 11.6547449 2.69625408"></polygon>
                            <polygon id="Path-146" fill="#572109" mask="url(#mask-6)" points="12.9125433 2.41558929 28.7694471 7.31625373 31.3925418 6.58475877 15.4934005 1.43625418"></polygon>
                            <polygon id="Path-146" fill="#572109" mask="url(#mask-6)" points="16.692543 1.15558939 32.5494468 6.05625383 35.1725415 5.32475887 19.2734002 0.176254277"></polygon>
                        </g>
                        <g id="Group-19" transform="translate(55.010152, 80.515101)">
                            <polygon id="Path-88" fill="url(#linearGradient-7)" points="0 29.4663545 3.14999976 38.5330865 13.9851812 38.3465828 34.6992551 32.4665833 35.9166122 18.0671316 53.6525401 12.1014029 60.9758742 12.1014029 70.4525388 9.7311434 79.1299484 6.82329146 80.6399938 3.06489234 74.6798032 0.0569548919 72.294217 0.419999968 74.0898944 3.68941224 72.294217 5.16471758 66.6823796 8.33454477 60.250718 9.62084936 53.3427806 8.7599545 45.8089445 6.31541243 27.4199288 11.8467024 22.0674076 24.0715058 10.886979 24.7569452"></polygon>
                            <g id="Group-17" transform="translate(75.179994, 3.904892)">
                                <polygon id="Path-145" fill="#9D6001" points="5.18518522e-14 0.376899449 2.41124432 3.44312046 2.60638896 3.37872594 5.18518522e-14 -5.89395154e-14"></polygon>
                                <polygon id="Path-145" fill="#B6740C" points="2.45456969e-13 0.0555845853 2.60638896 3.37872594 3.94995415 2.91839918 1.56112253 6.4535039e-14"></polygon>
                            </g>
                            <g id="Group-18" transform="translate(27.299998, 10.624892)">
                                <g id="Group-17">
                                    <polygon id="Path-145" fill="#9D6001" opacity="0.5" points="0.119930938 1.22181059 14.2006337 5.56787067 15.4097742 5.16448203 0.887629327 0.958688891"></polygon>
                                    <polygon id="Path-145" fill="#B6740C" points="1.90993873e-13 0.706311962 15.7190811 5.28037411 18.8741794 4.47397367 2.63615254 0"></polygon>
                                </g>
                            </g>
                            <g id="Group-18" transform="translate(13.439999, 24.484891)">
                                <g id="Group-17">
                                    <polygon id="Path-145" fill="#9D6001" points="0.124277334 0.518741532 3.10785621 4.08114656 3.10785621 3.63105492 0.124277334 0.0686498971"></polygon>
                                    <polygon id="Path-145" fill="#C77E0A" points="5.03999961 4.08114656 3.10785621 4.08114656 3.10785621 3.63105492 5.03999961 3.63105492"></polygon>
                                    <polygon id="Path-145" fill="#B6740C" points="0.124277334 0.0686498971 3.10785621 3.63105492 5.03999961 3.63105492 2.15444808 0"></polygon>
                                </g>
                            </g>
                        </g>
                        <g id="Berge" transform="translate(56.410152, 0.000000)">
                            <g id="Group-8" transform="translate(36.593321, 0.263842)">
                                <polygon id="Path-29" fill="#BBDBDD" points="13.9104 22.0676892 18.3354271 0.604800002 20.843946 29.4069645 16.5365881 25.6068518 14.4550391 29.8979002"></polygon>
                                <g id="Path-21" transform="translate(18.335427, 0.604800)">
                                    <mask id="mask-9" fill="white">
                                        <use xlink:href="#path-8"></use>
                                    </mask>
                                    <use id="Mask" fill="#F4D1A7" xlink:href="#path-8"></use>
                                    <polygon fill="#FFFFFF" mask="url(#mask-9)" points="-0.958254098 29.2931002 2.50851887 39.923642 5.09857202 31.185758 13.3056 44.6625113 3.78141962e-13 -3.86762623e-14"></polygon>
                                </g>
                                <g id="Path-21" transform="translate(2.713079, 0.340958)">
                                    <mask id="mask-11" fill="white">
                                        <use xlink:href="#path-10"></use>
                                    </mask>
                                    <use id="Mask" fill="#917452" transform="translate(9.644168, 30.733289) scale(-1, 1) translate(-9.644168, -30.733289) " xlink:href="#path-10"></use>
                                    <polygon fill="#D4EDEF" mask="url(#mask-11)" points="5.74560002 28.1704501 12.85018 36.6883158 14.6729205 31.4496001 18.1308674 40.1874841 15.6223485 0.647915627"></polygon>
                                </g>
                                <mask id="mask-13" fill="white">
                                    <use xlink:href="#path-12"></use>
                                </mask>
                                <use id="Mask" fill="#EBC18F" xlink:href="#path-12"></use>
                            </g>
                            <g id="Group-9" transform="translate(60.303498, 30.545083)">
                                <g id="Path-21">
                                    <mask id="mask-15" fill="white">
                                        <use xlink:href="#path-14"></use>
                                    </mask>
                                    <use id="Mask" fill="#D1A97A" xlink:href="#path-14"></use>
                                    <polygon fill="#DBF9FC" mask="url(#mask-15)" points="0.762569234 10.31269 3.1424174 20.4723789 5.52584152 18.6780004 7.88384373 21.3686789 12.9763053 17.1193715 5.98936645 -0.87427613"></polygon>
                                </g>
                                <g id="Path-21" transform="translate(6.506451, 0.000000)">
                                    <mask id="mask-17" fill="white">
                                        <use xlink:href="#path-16"></use>
                                    </mask>
                                    <use id="Mask" fill="#F4D1A7" xlink:href="#path-16"></use>
                                    <polygon fill="#FFFFFF" mask="url(#mask-17)" points="3.77823611 17.1132028 5.13029385 18.3098726 7.64586782 21.3686789 8.07772069 19.1948712 12.1347 18.3098726 -9.60716444e-14 -1.72776053e-13"></polygon>
                                </g>
                            </g>
                            <g id="Group-5" transform="translate(0.000000, 7.761600)">
                                <g id="Path-21" transform="translate(8.220376, 0.053924)">
                                    <mask id="mask-19" fill="white">
                                        <use xlink:href="#path-18"></use>
                                    </mask>
                                    <use id="Mask" fill="#AE8D66" xlink:href="#path-18"></use>
                                    <polygon fill="#D4EDEF" mask="url(#mask-19)" points="22.4325599 13.0636793 18.3055693 34.941571 23.1193311 31.6096641 23.348205 34.941571 28.3943456 33.4891628 29.5144047 35.898777 32.2195737 26.9717324 32.6585027 -2.90303984"></polygon>
                                </g>
                                <g id="Group-9" transform="translate(9.138400, 68.186400) scale(-1, 1) translate(-9.138400, -68.186400) translate(0.138400, 59.186400)">
                                    <g id="Path-21">
                                        <mask id="mask-21" fill="white">
                                            <use xlink:href="#path-20"></use>
                                        </mask>
                                        <use id="Mask" fill="#E0B582" xlink:href="#path-20"></use>
                                    </g>
                                    <g id="Path-21" transform="translate(6.048000, 0.000000)">
                                        <mask id="mask-23" fill="white">
                                            <use xlink:href="#path-22"></use>
                                        </mask>
                                        <use id="Mask" fill="#BE9360" xlink:href="#path-22"></use>
                                    </g>
                                </g>
                                <g id="Path-21" transform="translate(36.784749, 0.136408)">
                                    <mask id="mask-25" fill="white">
                                        <use xlink:href="#path-24"></use>
                                    </mask>
                                    <use id="Mask" fill="#EBC18F" xlink:href="#path-24"></use>
                                    <polygon fill="#FFFFFF" mask="url(#mask-25)" points="1.27535251 22.6470749 2.09131538 27.6239193 6.67624622 38.4652778 10.4696077 29.5398185 16.3451611 32.3696232 15.7884377 23.2746694 4.21578533 -2.51990583"></polygon>
                                </g>
                                <g id="Group-6" transform="translate(9.671200, 15.736798)">
                                    <g id="Path-21" transform="translate(0.000000, -0.000000)">
                                        <mask id="mask-27" fill="white">
                                            <use xlink:href="#path-26"></use>
                                        </mask>
                                        <use id="Mask" fill="#D1A97A" xlink:href="#path-26"></use>
                                        <polygon fill="#DBF9FC" mask="url(#mask-27)" points="18.5068789 16.139085 17.9337406 21.1646701 20.2385734 18.2207534 21.0442789 24.047059 22.6722737 21.6374448 27.0254355 4.49333703e-13"></polygon>
                                    </g>
                                    <g id="Path-21" transform="translate(9.607197, -0.000000)">
                                        <mask id="mask-29" fill="white">
                                            <use xlink:href="#path-28"></use>
                                        </mask>
                                        <use id="Mask" fill="#F4D1A7" xlink:href="#path-28"></use>
                                        <polygon fill="#FFFFFF" mask="url(#mask-29)" points="13.2542422 14.6875651 13.2542422 21.1646701 14.9859367 16.7692335 15.7916421 22.5955391 17.4196369 20.1859249 17.9716819 -2.61919473"></polygon>
                                    </g>
                                </g>
                            </g>
                            <g id="Group-7" transform="translate(36.698033, 39.961871)">
                                <g id="Path-21" transform="translate(0.000000, 0.305760)">
                                    <mask id="mask-31" fill="white">
                                        <use xlink:href="#path-30"></use>
                                    </mask>
                                    <use id="Mask" fill="#D1A97A" xlink:href="#path-30"></use>
                                    <polygon fill="#DBF9FC" mask="url(#mask-31)" points="3.74191575 8.28392633 6.12176391 18.4436152 8.50518803 16.6492367 13.2549817 23.8506552 15.9556518 15.0906078 8.96871296 -2.90303984"></polygon>
                                </g>
                                <g id="Path-21" transform="translate(8.968713, 0.289575)">
                                    <mask id="mask-33" fill="white">
                                        <use xlink:href="#path-32"></use>
                                    </mask>
                                    <use id="Mask" fill="#F4D1A7" xlink:href="#path-32"></use>
                                    <polygon fill="#FFFFFF" mask="url(#mask-33)" points="3.78716149 13.98372 3.78716149 20.460825 8.08664607 19.976554 8.08664607 16.0653884 12.1436254 15.1803898 -1.38039701 -4.72951888"></polygon>
                                </g>
                            </g>
                        </g>
                        <polygon id="Path-43" fill="url(#linearGradient-34)" points="182.405842 107.280317 206.031722 99.468215 182.705523 86.8305137"></polygon>
                        <polygon id="Path-43" fill="#98C536" points="24.4900177 91.6764074 8.35598193e-14 104.403925 37.8356807 106.408764"></polygon>
                        <g id="Path-146-+-Path-146-+-Path-146-+-Path-146-+-Path-146-Mask" transform="translate(25.391260, 98.159906) rotate(-9.000000) translate(-25.391260, -98.159906) translate(10.891260, 93.659906)">
                            <mask id="mask-36" fill="white">
                                <use xlink:href="#path-35"></use>
                            </mask>
                            <use id="Mask" fill="#742D0D" xlink:href="#path-35"></use>
                            <polygon id="Path-146" fill="#572109" mask="url(#mask-36)" points="1.25803522 4.95647091 13.6552502 8.87700222 15.7060333 8.29180629 3.27579622 4.17300286"></polygon>
                            <polygon id="Path-146" fill="#572109" mask="url(#mask-36)" points="4.28203481 3.94847104 16.6792498 7.86900236 18.7300328 7.28380643 6.29979581 3.165003"></polygon>
                            <polygon id="Path-146" fill="#572109" mask="url(#mask-36)" points="7.3060344 2.94047118 19.7032494 6.8610025 21.7540324 6.27580656 9.3237954 2.15700314"></polygon>
                            <polygon id="Path-146" fill="#572109" mask="url(#mask-36)" points="10.330034 1.93247132 23.0155563 5.85300264 25.114032 5.2678067 12.3947197 1.14900328"></polygon>
                            <polygon id="Path-146" fill="#572109" mask="url(#mask-36)" points="13.3540336 0.924471456 26.0395559 4.84500277 28.1380316 4.25980684 15.4187192 0.141003413"></polygon>
                        </g>
                        <polygon id="Path-89" fill="#481A05" points="51.4088932 122.212687 46.2274769 158.549988 55.2550153 133.316056"></polygon>
                        <polygon id="Path-90" fill="#80442F" points="55.2550153 133.316056 46.2274769 158.549988 77.6901503 129.447053"></polygon>
                        <polygon id="Path-91" fill="#572109" points="38.2142549 117.236233 46.2274769 158.549988 51.4088932 122.212687"></polygon>
                        <polygon id="Path-140" fill="#A05337" points="133.970146 156.843099 149.180887 126.823061 137.146075 133.316056"></polygon>
                        <polygon id="Path-144" fill="#340505" points="94.9605982 186.479986 100.538518 230.321386 100.28299 195.24903"></polygon>
                        <polygon id="Path-147" fill="#729327" points="145.167411 75.8519938 138.274325 79.8983288 135.751967 86.6735168 150.295696 94.1487965 172.772134 95.8798714 177.281617 85.9074473 163.191691 80.4528235 150.692215 77.2799941"></polygon>
                        <g id="Group" transform="translate(164.462631, 81.357819) rotate(7.000000) translate(-164.462631, -81.357819) translate(156.962631, 74.857819)">
                            <polygon id="Path-33" fill="#6B311F" points="5.9419093 10.6788676 12.8896073 9.96568793 12.0788712 3.81987745e-13 5.03999961 1.06337947"></polygon>
                            <polygon id="Path-33" fill="#000000" opacity="0.100000001" points="5.9419093 10.6788676 12.8896073 9.96568793 7.31921351 11.8368763 0.280341971 12.9002558"></polygon>
                            <polygon id="Path-34" fill="#985138" points="12.0788712 3.81987745e-13 13.7592978 0.743760851 14.7384422 9.20572363 12.8896073 9.96568793"></polygon>
                        </g>
                        <g id="Group-3" transform="translate(149.090145, 74.339994)">
                            <polygon id="Path-38" fill="#6B311F" points="4.19999968 7.79282905 4.19999968 0.599869713 8.26190659 0.190903943 8.26190659 7.79282905"></polygon>
                            <polygon id="Path-38" fill="#000000" opacity="0.100000001" points="4.19999968 7.79282905 0.0907417432 9.23999929 4.15264865 8.83103352 8.26190659 7.79282905"></polygon>
                            <polygon id="Path-39" fill="#985138" points="8.26190659 7.79282905 9.79083431 6.88487199 9.79083431 0.4180303 8.26190659 0.232830085"></polygon>
                        </g>
                        <g id="Group" transform="translate(158.413035, 85.454725) rotate(7.000000) translate(-158.413035, -85.454725) translate(151.913035, 79.954725)">
                            <polygon id="Path-33" fill="#985138" points="5.34152735 8.5430936 10.8996854 7.97254987 10.2510965 3.05590196e-12 4.61999965 0.850703523"></polygon>
                            <polygon id="Path-33" fill="#000000" opacity="0.100000001" points="5.34152735 8.5430936 10.8996854 7.97254987 5.76487918 9.79972824 0.133782281 10.6504318"></polygon>
                            <polygon id="Path-34" fill="#AD5E42" points="10.2510965 4.39285907e-12 11.5954378 0.595008645 12.3787532 7.36457847 10.8996854 7.97254987"></polygon>
                        </g>
                        <g id="Group" transform="translate(167.090595, 88.687603) rotate(7.000000) translate(-167.090595, -88.687603) translate(161.590595, 84.187603)">
                            <polygon id="Path-33" fill="#985138" points="4.77722181 6.83447447 9.223748 6.37803951 8.70487693 4.01087133e-12 4.19999968 0.680562778"></polygon>
                            <polygon id="Path-33" fill="#000000" opacity="0.100000001" points="4.77722181 6.83447447 9.223748 6.37803951 4.83577634 7.73936546 0.330899091 8.41992824"></polygon>
                            <polygon id="Path-34" fill="#AD5E42" points="8.70487693 4.39285907e-12 9.78034983 0.476006888 10.4070022 5.89166242 9.223748 6.37803951"></polygon>
                        </g>
                        <g id="Group-20" transform="translate(136.910146, 70.979995)">
                            <polygon id="Rectangle" fill="#6B311F" points="7.13999945 0.503999931 13.1879986 0.503999931 13.1879986 12.5999983 7.13999945 11.8590101"></polygon>
                            <polygon id="Rectangle" fill="#000000" opacity="0.100000001" points="0.235929108 13.019999 6.28392828 13.019999 13.1879986 12.5999983 7.13999945 11.8590101"></polygon>
                            <polygon id="Rectangle" fill="#BC6648" points="7.13999945 0.503999931 13.1879986 0.503999931 15.4852835 0 9.4372843 0"></polygon>
                            <polygon id="Rectangle" fill="#985138" points="15.4852835 0 13.1879986 0.503999931 13.1879986 12.5999983 15.4852835 12.0959984"></polygon>
                        </g>
                        <g id="Group-3" transform="translate(141.530145, 78.959994)">
                            <polygon id="Path-38" fill="#985138" points="6.29999952 9.07199876 6.29999952 0.48805229 11.8439988 0 11.8439988 9.07199876"></polygon>
                            <polygon id="Path-38" fill="#000000" opacity="0.100000001" points="6.29999952 9.07199876 -2.76045832e-14 10.0513286 5.54399924 9.56327629 11.8439988 9.07199876"></polygon>
                            <polygon id="Path-39" fill="#AD5E42" points="11.8439988 9.07199876 13.8599985 7.98245029 13.8599985 0.222240258 11.8439988 0"></polygon>
                        </g>
                        <g id="Group-3" transform="translate(120.530147, 89.459993)">
                            <g id="Group-23">
                                <polygon id="Path-38" fill="#985138" points="0 7.99786258 0 4.3334571 5.54399924 4.3334571 5.54399924 8.35531074"></polygon>
                                <polygon id="Path-39" fill="#AD5E42" points="5.54399924 8.35531074 11.2980322 5.33956474 11.2980322 2.51999981 5.54399924 4.3334571"></polygon>
                                <polyline id="Path-150" fill="#985138" points="5.54399924 4.3334571 2.92971737 1.979565 0 4.3334571"></polyline>
                                <polyline id="Path-151" fill="#CF6D4B" points="2.92971737 1.979565 8.6875929 0.174159865 11.2980322 2.51999981 5.54399924 4.38287417"></polyline>
                            </g>
                            <g id="Group-23" transform="translate(9.113700, 0.960435)">
                                <polygon id="Path-38" fill="#985138" points="0 7.99786258 0 4.3334571 5.54399924 4.3334571 5.54399924 8.35531074"></polygon>
                                <polygon id="Path-39" fill="#AD5E42" points="5.54399924 8.35531074 11.2980322 5.33956474 11.2980322 2.51999981 5.54399924 4.3334571"></polygon>
                                <polyline id="Path-150" fill="#985138" points="5.54399924 4.3334571 2.92971737 1.979565 0 4.3334571"></polyline>
                                <polyline id="Path-151" fill="#CF6D4B" points="2.92971737 1.979565 8.6875929 0.174159865 11.2980322 2.51999981 5.54399924 4.38287417"></polyline>
                            </g>
                        </g>
                        <polygon id="Path-147" fill="#729327" points="48.5603874 86.351993 43.7502915 88.9824903 38.9635038 96.4994457 49.112331 101.359079 67.8233675 99.371992 70.9701508 92.8889809 61.1379941 89.3429638 52.4156767 87.2803271"></polygon>
                        <g id="Group-3" transform="translate(51.230152, 83.159994)">
                            <polygon id="Path-38" fill="#6B311F" points="4.19999968 7.79282905 4.19999968 0.599869713 8.26190659 0.190903943 8.26190659 7.79282905"></polygon>
                            <polygon id="Path-38" fill="#000000" opacity="0.100000001" points="4.19999968 7.79282905 0.0907417432 9.23999929 4.15264865 8.83103352 8.26190659 7.79282905"></polygon>
                            <polygon id="Path-39" fill="#985138" points="8.26190659 7.79282905 9.79083431 6.88487199 9.79083431 0.4180303 8.26190659 0.232830085"></polygon>
                        </g>
                        <g id="Group" transform="translate(51.003787, 97.084069) rotate(7.000000) translate(-51.003787, -97.084069) translate(44.503787, 91.584069)">
                            <polygon id="Path-33" fill="#985138" points="5.34152735 8.5430936 10.8996854 7.97254987 10.2510965 3.05590196e-12 4.61999965 0.850703523"></polygon>
                            <polygon id="Path-33" fill="#000000" opacity="0.100000001" points="5.34152735 8.5430936 10.8996854 7.97254987 5.76487918 9.79972824 0.133782281 10.6504318"></polygon>
                            <polygon id="Path-34" fill="#AD5E42" points="10.2510965 4.39285907e-12 11.5954378 0.595008645 12.3787532 7.36457847 10.8996854 7.97254987"></polygon>
                        </g>
                        <g id="Group" transform="translate(62.597320, 93.989790) rotate(7.000000) translate(-62.597320, -93.989790) translate(57.097320, 89.489790)">
                            <polygon id="Path-33" fill="#985138" points="4.77722181 6.83447447 9.223748 6.37803951 8.70487693 4.01087133e-12 4.19999968 0.680562778"></polygon>
                            <polygon id="Path-33" fill="#000000" opacity="0.100000001" points="4.77722181 6.83447447 9.223748 6.37803951 4.83577634 7.73936546 0.330899091 8.41992824"></polygon>
                            <polygon id="Path-34" fill="#AD5E42" points="8.70487693 4.39285907e-12 9.78034983 0.476006888 10.4070022 5.89166242 9.223748 6.37803951"></polygon>
                        </g>
                        <g id="Group-20" transform="translate(38.948332, 77.699994)">
                            <polygon id="Rectangle" fill="#6B311F" points="7.13999945 0.503999931 13.1879986 0.503999931 13.1879986 12.5999983 7.13999945 11.8590101"></polygon>
                            <polygon id="Rectangle" fill="#000000" opacity="0.100000001" points="0.235929108 13.019999 6.28392828 13.019999 13.1879986 12.5999983 7.13999945 11.8590101"></polygon>
                            <polygon id="Rectangle" fill="#BC6648" points="7.13999945 0.503999931 13.1879986 0.503999931 15.4852835 0 9.4372843 0"></polygon>
                            <polygon id="Rectangle" fill="#985138" points="15.4852835 0 13.1879986 0.503999931 13.1879986 12.5999983 15.4852835 12.0959984"></polygon>
                        </g>
                        <g id="Group-3" transform="translate(36.950153, 88.619993)">
                            <polygon id="Path-38" fill="#985138" points="6.29999952 9.07199876 6.29999952 0.48805229 11.8439988 0 11.8439988 9.07199876"></polygon>
                            <polygon id="Path-38" fill="#000000" opacity="0.100000001" points="6.29999952 9.07199876 -2.76045832e-14 10.0513286 5.54399924 9.56327629 11.8439988 9.07199876"></polygon>
                            <polygon id="Path-39" fill="#AD5E42" points="11.8439988 9.07199876 13.8599985 7.98245029 13.8599985 0.222240258 11.8439988 0"></polygon>
                        </g>
                        <polygon id="Path-148" fill="#729327" points="149.510145 92.3999929 133.868525 101.219992 101.102693 95.6016743 98.029231 96.4203671 134.70269 103.623301 152.30659 93.0362818"></polygon>
                        <g id="Group-11" transform="translate(192.571934, 94.528424) rotate(-3.000000) translate(-192.571934, -94.528424) translate(188.571934, 89.028424)">
                            <polygon id="Path-93" fill="#985138" points="2.93655318 5.31888819 2.93655318 10.6818802 4.09495517 10.2216517 3.75697045 5.31888819"></polygon>
                            <polygon id="Path-94" fill="#6B311F" points="2.93655318 5.31888819 2.04698006 10.364905 2.93655318 10.6818802"></polygon>
                            <polygon id="Path-95" fill="#4D6E01" points="6.03327398e-16 4.45330845 2.93655318 6.36509163 5.96299238 5.82153718 4.45151412 4.45330845"></polygon>
                            <polygon id="Path-96" fill="#6B901A" points="4.45151412 4.45330845 7.29735207 4.18077371 5.96299238 5.82153718"></polygon>
                            <polygon id="Path-97" fill="#85B122" points="4.45151412 4.45330845 4.45151412 0 6.38124433 1.07094872 7.29735207 4.18077371"></polygon>
                            <polygon id="Path-98" fill="#5E8700" points="4.45151412 0 1.77798535 0.517967495 -2.47108673e-16 4.45330845 4.45151412 4.45330845"></polygon>
                        </g>
                        <g id="Group-11" transform="translate(185.789550, 97.801155) rotate(-3.000000) translate(-185.789550, -97.801155) translate(182.289550, 92.801155)">
                            <polygon id="Path-93" fill="#985138" points="2.52543578 4.57424392 2.52543578 9.18641713 3.5216615 8.7906206 3.23099464 4.57424392"></polygon>
                            <polygon id="Path-94" fill="#6B311F" points="2.52543578 4.57424392 1.76040288 8.91381842 2.52543578 9.18641713"></polygon>
                            <polygon id="Path-95" fill="#4D6E01" points="5.18861571e-16 3.82984533 2.52543578 5.47397889 5.12817354 5.00652205 3.8283022 3.82984533"></polygon>
                            <polygon id="Path-96" fill="#6B901A" points="3.8283022 3.82984533 6.27572288 3.59546545 5.12817354 5.00652205"></polygon>
                            <polygon id="Path-97" fill="#85B122" points="3.8283022 3.82984533 3.8283022 0 5.48787021 0.921015913 6.27572288 3.59546545"></polygon>
                            <polygon id="Path-98" fill="#5E8700" points="3.8283022 0 1.52906743 0.445452053 -2.12513463e-16 3.82984533 3.8283022 3.82984533"></polygon>
                        </g>
                        <g id="Group-11" transform="translate(178.985761, 93.116442) rotate(-3.000000) translate(-178.985761, -93.116442) translate(175.985761, 88.616442)">
                            <polygon id="Path-93" fill="#985138" points="2.24763781 4.07107702 2.24763781 8.17591111 3.13427869 7.82365221 2.87558518 4.07107702"></polygon>
                            <polygon id="Path-94" fill="#6B311F" points="2.24763781 4.07107702 1.56675854 7.93329827 2.24763781 8.17591111"></polygon>
                            <polygon id="Path-95" fill="#4D6E01" points="4.61786791e-16 3.40856229 2.24763781 4.87184113 4.56407437 4.45580456 3.40718891 3.40856229"></polygon>
                            <polygon id="Path-96" fill="#6B901A" points="3.40718891 3.40856229 5.58539327 3.1999642 4.56407437 4.45580456"></polygon>
                            <polygon id="Path-97" fill="#85B122" points="3.40718891 3.40856229 3.40718891 0 4.88420441 0.819704149 5.58539327 3.1999642"></polygon>
                            <polygon id="Path-98" fill="#5E8700" points="3.40718891 0 1.36086999 0.396452321 -1.89136979e-16 3.40856229 3.40718891 3.40856229"></polygon>
                        </g>
                        <g id="Group-11" transform="translate(177.710296, 98.485848) rotate(-3.000000) translate(-177.710296, -98.485848) translate(174.710296, 94.485848)">
                            <polygon id="Path-93" fill="#985138" points="2.1718748 3.93384983 2.1718748 7.90031886 3.02862894 7.55993384 2.77865544 3.93384983"></polygon>
                            <polygon id="Path-94" fill="#6B311F" points="2.1718748 3.93384983 1.5139465 7.66588397 2.1718748 7.90031886"></polygon>
                            <polygon id="Path-95" fill="#4D6E01" points="4.46220958e-16 3.29366704 2.1718748 4.70762192 4.41022931 4.30560904 3.29233995 3.29366704"></polygon>
                            <polygon id="Path-96" fill="#6B901A" points="3.29233995 3.29366704 5.39712177 3.09210034 4.41022931 4.30560904"></polygon>
                            <polygon id="Path-97" fill="#85B122" points="3.29233995 3.29366704 3.29233995 0 4.71956846 0.792073698 5.39712177 3.09210034"></polygon>
                            <polygon id="Path-98" fill="#5E8700" points="3.29233995 0 1.31499801 0.383088772 -1.82761581e-16 3.29366704 3.29233995 3.29366704"></polygon>
                        </g>
                        <g id="Group-11" transform="translate(174.029551, 104.521154) rotate(-3.000000) translate(-174.029551, -104.521154) translate(170.529551, 99.521154)">
                            <polygon id="Path-93" fill="#985138" points="2.52543578 4.57424392 2.52543578 9.18641713 3.5216615 8.7906206 3.23099464 4.57424392"></polygon>
                            <polygon id="Path-94" fill="#6B311F" points="2.52543578 4.57424392 1.76040288 8.91381842 2.52543578 9.18641713"></polygon>
                            <polygon id="Path-95" fill="#4D6E01" points="5.18861571e-16 3.82984533 2.52543578 5.47397889 5.12817354 5.00652205 3.8283022 3.82984533"></polygon>
                            <polygon id="Path-96" fill="#6B901A" points="3.8283022 3.82984533 6.27572288 3.59546545 5.12817354 5.00652205"></polygon>
                            <polygon id="Path-97" fill="#85B122" points="3.8283022 3.82984533 3.8283022 0 5.48787021 0.921015913 6.27572288 3.59546545"></polygon>
                            <polygon id="Path-98" fill="#5E8700" points="3.8283022 0 1.52906743 0.445452053 -2.12513463e-16 3.82984533 3.8283022 3.82984533"></polygon>
                        </g>
                        <g id="Group-11" transform="translate(166.889552, 103.681154) rotate(-3.000000) translate(-166.889552, -103.681154) translate(163.389552, 98.681154)">
                            <polygon id="Path-93" fill="#985138" points="2.52543578 4.57424392 2.52543578 9.18641713 3.5216615 8.7906206 3.23099464 4.57424392"></polygon>
                            <polygon id="Path-94" fill="#6B311F" points="2.52543578 4.57424392 1.76040288 8.91381842 2.52543578 9.18641713"></polygon>
                            <polygon id="Path-95" fill="#4D6E01" points="5.18861571e-16 3.82984533 2.52543578 5.47397889 5.12817354 5.00652205 3.8283022 3.82984533"></polygon>
                            <polygon id="Path-96" fill="#6B901A" points="3.8283022 3.82984533 6.27572288 3.59546545 5.12817354 5.00652205"></polygon>
                            <polygon id="Path-97" fill="#85B122" points="3.8283022 3.82984533 3.8283022 0 5.48787021 0.921015913 6.27572288 3.59546545"></polygon>
                            <polygon id="Path-98" fill="#5E8700" points="3.8283022 0 1.52906743 0.445452053 -2.12513463e-16 3.82984533 3.8283022 3.82984533"></polygon>
                        </g>
                        <g id="Group-11" transform="translate(160.589552, 106.621154) rotate(-3.000000) translate(-160.589552, -106.621154) translate(157.089552, 101.621154)">
                            <polygon id="Path-93" fill="#985138" points="2.52543578 4.57424392 2.52543578 9.18641713 3.5216615 8.7906206 3.23099464 4.57424392"></polygon>
                            <polygon id="Path-94" fill="#6B311F" points="2.52543578 4.57424392 1.76040288 8.91381842 2.52543578 9.18641713"></polygon>
                            <polygon id="Path-95" fill="#4D6E01" points="5.18861571e-16 3.82984533 2.52543578 5.47397889 5.12817354 5.00652205 3.8283022 3.82984533"></polygon>
                            <polygon id="Path-96" fill="#6B901A" points="3.8283022 3.82984533 6.27572288 3.59546545 5.12817354 5.00652205"></polygon>
                            <polygon id="Path-97" fill="#85B122" points="3.8283022 3.82984533 3.8283022 0 5.48787021 0.921015913 6.27572288 3.59546545"></polygon>
                            <polygon id="Path-98" fill="#5E8700" points="3.8283022 0 1.52906743 0.445452053 -2.12513463e-16 3.82984533 3.8283022 3.82984533"></polygon>
                        </g>
                        <polygon id="Path-149" fill="#729327" points="68.1084621 92.3669376 78.6561505 88.4718815 84.9463025 91.139993 82.3101499 91.846305 78.6561505 90.4194095 69.2901509 93.9321633"></polygon>
                        <g id="Group-24" transform="translate(64.679643, 111.423510) rotate(-12.000000) translate(-64.679643, -111.423510) translate(60.679643, 107.923510)">
                            <polyline id="Path-153" fill="#915D0A" points="5.86243111 6.277646 5.86243111 3.88514833 7.35606625 4.74773391"></polyline>
                            <polygon id="Path-152" fill="#915D0A" points="0.279999895 2.91764626 2.30524876 2.91764626 2.30524876 4.74773391 0.738964704 4.8526504"></polygon>
                            <polygon id="Path-154" fill="#D28B1C" points="0.916581441 3.57427615 4.93928126 -1.90993884e-12 6.23157223 5.31254842"></polygon>
                            <polygon id="Path-152" fill="#B6740C" points="0.279999895 2.91764626 7.35606625 4.77390041 5.86427681 6.277646 0.738964704 4.8526504"></polygon>
                        </g>
                        <path d="M61.7711009,113.424609 L67.0788806,113.753237 L63.3545161,114.328482 L62.1243363,114.076609 L59.7125931,114.328482 L60.8693363,113.819609 L59.3993363,113.520033 L61.7711009,113.424609 Z" id="Combined-Shape" fill="#000000" opacity="0.100000001"></path>
                        <polygon id="Path-155" fill="#729327" points="143.163122 102.495421 149.180887 98.886935 158.116515 100.421227 151.08333 104.999992"></polygon>
                        <g id="Group" transform="translate(145.546786, 100.887922) rotate(7.000000) translate(-145.546786, -100.887922) translate(141.546786, 97.887922)">
                            <polygon id="Path-33" fill="#985138" points="3.28422884 4.28174037 6.45662349 4.46462758 6.09341375 2.54230984e-12 2.93999972 0.476393936"></polygon>
                            <path d="M3.28422884,4.28174037 L6.45662349,4.46462758 L1.98479197,5.76077373 C1.31193609,5.76995092 0.796384969,5.78814629 0.438138604,5.81535985 C0.0798922394,5.84257341 0.0110558246,5.86877002 0.23162936,5.89394967 L3.28422884,4.28174037 Z" id="Path-33" fill="#000000" opacity="0.100000001"></path>
                            <polygon id="Path-34" fill="#AD5E42" points="6.09341375 3.0750013e-12 6.84624476 0.333204816 7.2849014 4.12416363 6.45662349 4.46462758"></polygon>
                        </g>
                        <polygon id="Path-157" fill="#BEBEBE" points="151.300953 102.164942 152.30659 101.610824 152.6745 96.065529 151.794817 96.065529"></polygon>
                        <polygon id="Path-156" fill="#979797" points="150.350145 102.164942 150.849961 94.9199927 155.599878 95.1745458 155.56606 102.495421 154.382144 102.495421 154.415962 96.4339896 151.816289 96.1557925 151.357837 102.164942"></polygon>
                        <polygon id="Path-156" fill="#000000" opacity="0.100000001" points="150.350145 102.164942 146.6816 103.283644 150.965509 103.888813 155.56606 102.495421 154.382144 102.495421 150.965509 103.125366 149.117928 102.973274 151.357837 102.164942"></polygon>
                        <polygon id="Path-157" fill="#BEBEBE" points="155.56606 102.495421 156.571697 101.941303 156.47956 95.1745458 155.599878 95.1745458"></polygon>
                        <polygon id="Path-158" fill="#DBDBDB" points="150.849961 94.9199927 151.553569 94.7967151 156.47956 95.1745458 155.599878 95.1745458"></polygon>
                        <circle id="Oval" fill="#CC1B00" cx="175.130143" cy="101.639992" r="1"></circle>
                        <circle id="Oval" fill="#CC1B00" cx="172.610143" cy="101.219992" r="1"></circle>
                        <circle id="Oval" fill="#CC1B00" cx="172.610143" cy="102.479992" r="1"></circle>
                        <g id="Group-25" opacity="0.300000012" transform="translate(158.804733, 122.162609) rotate(-8.000000) translate(-158.804733, -122.162609) translate(155.804733, 119.662609)" fill="#FFFFFF">
                            <rect id="Rectangle" x="2.95680008" y="1.94880005" width="1" height="1"></rect>
                            <rect id="Rectangle" x="1.78080005" y="0.504000014" width="1" height="1"></rect>
                            <rect id="Rectangle" x="2.11680006" y="0.70560002" width="1" height="1"></rect>
                            <rect id="Rectangle" x="2.41920007" y="0.907200025" width="1" height="1"></rect>
                            <rect id="Rectangle" x="2.65440007" y="1.17600003" width="1" height="1"></rect>
                            <rect id="Rectangle" x="2.85600008" y="1.44480004" width="1" height="1"></rect>
                            <polygon id="Rectangle" points="1.71360005 1.00800003 1.98240005 1.00800003 1.6298298 1.60206182 1.36102979 1.60206182"></polygon>
                            <polygon id="Rectangle" points="1.29337028 1.71360005 1.56217029 1.71360005 2.10925988 2.28439686 1.84045988 2.28439686"></polygon>
                            <polygon id="Rectangle" points="1.3837769 2.96188705 1.54560004 2.95114224 2.00440617 2.37153162 1.86320699 2.37153162"></polygon>
                            <polygon id="Rectangle" points="0.308470321 0.254198445 1.57920004 0 1.57920004 1.00800003 0.482376576 1.00800003 0 0.70560002"></polygon>
                            <polygon id="Path-164" points="3.5123089 2.36829607 3.08749762 2.60045524 2.94383048 2.54244487 3.32640009 2.35200007"></polygon>
                            <polygon id="Path-165" points="2.93674088 2.62270474 2.91499711 3.57590244 3.06557485 3.6624001 3.10328194 2.77092488"></polygon>
                            <polygon id="Path-166" points="2.82240008 3.73794026 2.21760006 3.78037918 2.34981076 3.6624001 2.76326744 3.6624001"></polygon>
                            <polygon id="Path-167" points="2.78755182 3.81180251 2.46489943 4.03200011 2.34981076 4.68683053 2.56325416 4.10175793"></polygon>
                            <polygon id="Path-168" points="2.62955998 4.23360012 2.59036163 4.80480013 2.74081435 4.23360012 2.95559553 3.81595211"></polygon>
                            <polygon id="Path-168" transform="translate(2.971417, 4.324824) rotate(-12.000000) translate(-2.971417, -4.324824) " points="2.82799843 4.24804812 2.78880008 4.81924813 2.9392528 4.24804812 3.15403399 3.83040011"></polygon>
                            <polygon id="Path-169" points="3.96480011 2.21424006 4.21269983 2.44567687 4.77684493 2.63387047 5.44797135 2.77200008 5.28904335 2.58720007 4.63169293 2.46015847 4.21269983 2.28439686 4.09920011 2.10000006"></polygon>
                            <polygon id="Path-159" points="2.11680006 1.24507035 1.8431438 1.71360005 2.01600006 1.64640005"></polygon>
                            <polygon id="Path-160" points="2.23440006 1.30503093 2.10925988 1.84800005 2.34981076 1.75694536"></polygon>
                            <polygon id="Path-161" points="2.47118085 1.44480004 2.41920007 1.99899846 2.56868129 1.94880005"></polygon>
                            <polygon id="Path-162" points="2.68999416 1.77660005 2.65440007 2.10000006 2.49394068 2.28480006 2.65440007 2.28439686 2.82240008 2.10000006"></polygon>
                        </g>
                        <g id="Group-25" opacity="0.300000012" transform="translate(26.504743, 113.342609) rotate(-8.000000) translate(-26.504743, -113.342609) translate(23.504743, 110.842609)" fill="#FFFFFF">
                            <rect id="Rectangle" x="2.95680008" y="1.94880005" width="1" height="1"></rect>
                            <rect id="Rectangle" x="1.78080005" y="0.504000014" width="1" height="1"></rect>
                            <rect id="Rectangle" x="2.11680006" y="0.70560002" width="1" height="1"></rect>
                            <rect id="Rectangle" x="2.41920007" y="0.907200025" width="1" height="1"></rect>
                            <rect id="Rectangle" x="2.65440007" y="1.17600003" width="1" height="1"></rect>
                            <rect id="Rectangle" x="2.85600008" y="1.44480004" width="1" height="1"></rect>
                            <polygon id="Rectangle" points="1.71360005 1.00800003 1.98240005 1.00800003 1.6298298 1.60206182 1.36102979 1.60206182"></polygon>
                            <polygon id="Rectangle" points="1.29337028 1.71360005 1.56217029 1.71360005 2.10925988 2.28439686 1.84045988 2.28439686"></polygon>
                            <polygon id="Rectangle" points="1.3837769 2.96188705 1.54560004 2.95114224 2.00440617 2.37153162 1.86320699 2.37153162"></polygon>
                            <polygon id="Rectangle" points="0.308470321 0.254198445 1.57920004 0 1.57920004 1.00800003 0.482376576 1.00800003 0 0.70560002"></polygon>
                            <polygon id="Path-164" points="3.5123089 2.36829607 3.08749762 2.60045524 2.94383048 2.54244487 3.32640009 2.35200007"></polygon>
                            <polygon id="Path-165" points="2.93674088 2.62270474 2.91499711 3.57590244 3.06557485 3.6624001 3.10328194 2.77092488"></polygon>
                            <polygon id="Path-166" points="2.82240008 3.73794026 2.21760006 3.78037918 2.34981076 3.6624001 2.76326744 3.6624001"></polygon>
                            <polygon id="Path-167" points="2.78755182 3.81180251 2.46489943 4.03200011 2.34981076 4.68683053 2.56325416 4.10175793"></polygon>
                            <polygon id="Path-168" points="2.62955998 4.23360012 2.59036163 4.80480013 2.74081435 4.23360012 2.95559553 3.81595211"></polygon>
                            <polygon id="Path-168" transform="translate(2.971417, 4.324824) rotate(-12.000000) translate(-2.971417, -4.324824) " points="2.82799843 4.24804812 2.78880008 4.81924813 2.9392528 4.24804812 3.15403399 3.83040011"></polygon>
                            <polygon id="Path-169" points="3.96480011 2.21424006 4.21269983 2.44567687 4.77684493 2.63387047 5.44797135 2.77200008 5.28904335 2.58720007 4.63169293 2.46015847 4.21269983 2.28439686 4.09920011 2.10000006"></polygon>
                            <polygon id="Path-159" points="2.11680006 1.24507035 1.8431438 1.71360005 2.01600006 1.64640005"></polygon>
                            <polygon id="Path-160" points="2.23440006 1.30503093 2.10925988 1.84800005 2.34981076 1.75694536"></polygon>
                            <polygon id="Path-161" points="2.47118085 1.44480004 2.41920007 1.99899846 2.56868129 1.94880005"></polygon>
                            <polygon id="Path-162" points="2.68999416 1.77660005 2.65440007 2.10000006 2.49394068 2.28480006 2.65440007 2.28439686 2.82240008 2.10000006"></polygon>
                        </g>
                        <g id="Group-25" opacity="0.300000012" transform="translate(178.483738, 117.001528) rotate(-37.000000) translate(-178.483738, -117.001528) translate(175.483738, 114.501528)" fill="#FFFFFF">
                            <rect id="Rectangle" x="2.95680008" y="1.94880005" width="1" height="1"></rect>
                            <rect id="Rectangle" x="1.78080005" y="0.504000014" width="1" height="1"></rect>
                            <rect id="Rectangle" x="2.11680006" y="0.70560002" width="1" height="1"></rect>
                            <rect id="Rectangle" x="2.41920007" y="0.907200025" width="1" height="1"></rect>
                            <rect id="Rectangle" x="2.65440007" y="1.17600003" width="1" height="1"></rect>
                            <rect id="Rectangle" x="2.85600008" y="1.44480004" width="1" height="1"></rect>
                            <polygon id="Rectangle" points="1.71360005 1.00800003 1.98240005 1.00800003 1.6298298 1.60206182 1.36102979 1.60206182"></polygon>
                            <polygon id="Rectangle" points="1.29337028 1.71360005 1.56217029 1.71360005 2.10925988 2.28439686 1.84045988 2.28439686"></polygon>
                            <polygon id="Rectangle" points="1.3837769 2.96188705 1.54560004 2.95114224 2.00440617 2.37153162 1.86320699 2.37153162"></polygon>
                            <polygon id="Rectangle" points="0.308470321 0.254198445 1.57920004 0 1.57920004 1.00800003 0.482376576 1.00800003 0 0.70560002"></polygon>
                            <polygon id="Path-164" points="3.5123089 2.36829607 3.08749762 2.60045524 2.94383048 2.54244487 3.32640009 2.35200007"></polygon>
                            <polygon id="Path-165" points="2.93674088 2.62270474 2.91499711 3.57590244 3.06557485 3.6624001 3.10328194 2.77092488"></polygon>
                            <polygon id="Path-166" points="2.82240008 3.73794026 2.21760006 3.78037918 2.34981076 3.6624001 2.76326744 3.6624001"></polygon>
                            <polygon id="Path-167" points="2.78755182 3.81180251 2.46489943 4.03200011 2.34981076 4.68683053 2.56325416 4.10175793"></polygon>
                            <polygon id="Path-168" points="2.62955998 4.23360012 2.59036163 4.80480013 2.74081435 4.23360012 2.95559553 3.81595211"></polygon>
                            <polygon id="Path-168" transform="translate(2.971417, 4.324824) rotate(-12.000000) translate(-2.971417, -4.324824) " points="2.82799843 4.24804812 2.78880008 4.81924813 2.9392528 4.24804812 3.15403399 3.83040011"></polygon>
                            <polygon id="Path-169" points="3.96480011 2.21424006 4.21269983 2.44567687 4.77684493 2.63387047 5.44797135 2.77200008 5.28904335 2.58720007 4.63169293 2.46015847 4.21269983 2.28439686 4.09920011 2.10000006"></polygon>
                            <polygon id="Path-159" points="2.11680006 1.24507035 1.8431438 1.71360005 2.01600006 1.64640005"></polygon>
                            <polygon id="Path-160" points="2.23440006 1.30503093 2.10925988 1.84800005 2.34981076 1.75694536"></polygon>
                            <polygon id="Path-161" points="2.47118085 1.44480004 2.41920007 1.99899846 2.56868129 1.94880005"></polygon>
                            <polygon id="Path-162" points="2.68999416 1.77660005 2.65440007 2.10000006 2.49394068 2.28480006 2.65440007 2.28439686 2.82240008 2.10000006"></polygon>
                        </g>
                        <g id="Group-25" opacity="0.300000012" transform="translate(191.749552, 111.569129) rotate(88.000000) translate(-191.749552, -111.569129) translate(188.749552, 109.069129)" fill="#FFFFFF">
                            <rect id="Rectangle" x="2.95680008" y="1.94880005" width="1" height="1"></rect>
                            <rect id="Rectangle" x="1.78080005" y="0.504000014" width="1" height="1"></rect>
                            <rect id="Rectangle" x="2.11680006" y="0.70560002" width="1" height="1"></rect>
                            <rect id="Rectangle" x="2.41920007" y="0.907200025" width="1" height="1"></rect>
                            <rect id="Rectangle" x="2.65440007" y="1.17600003" width="1" height="1"></rect>
                            <rect id="Rectangle" x="2.85600008" y="1.44480004" width="1" height="1"></rect>
                            <polygon id="Rectangle" points="1.71360005 1.00800003 1.98240005 1.00800003 1.6298298 1.60206182 1.36102979 1.60206182"></polygon>
                            <polygon id="Rectangle" points="1.29337028 1.71360005 1.56217029 1.71360005 2.10925988 2.28439686 1.84045988 2.28439686"></polygon>
                            <polygon id="Rectangle" points="1.3837769 2.96188705 1.54560004 2.95114224 2.00440617 2.37153162 1.86320699 2.37153162"></polygon>
                            <polygon id="Rectangle" points="0.308470321 0.254198445 1.57920004 0 1.57920004 1.00800003 0.482376576 1.00800003 0 0.70560002"></polygon>
                            <polygon id="Path-164" points="3.5123089 2.36829607 3.08749762 2.60045524 2.94383048 2.54244487 3.32640009 2.35200007"></polygon>
                            <polygon id="Path-165" points="2.93674088 2.62270474 2.91499711 3.57590244 3.06557485 3.6624001 3.10328194 2.77092488"></polygon>
                            <polygon id="Path-166" points="2.82240008 3.73794026 2.21760006 3.78037918 2.34981076 3.6624001 2.76326744 3.6624001"></polygon>
                            <polygon id="Path-167" points="2.78755182 3.81180251 2.46489943 4.03200011 2.34981076 4.68683053 2.56325416 4.10175793"></polygon>
                            <polygon id="Path-168" points="2.62955998 4.23360012 2.59036163 4.80480013 2.74081435 4.23360012 2.95559553 3.81595211"></polygon>
                            <polygon id="Path-168" transform="translate(2.971417, 4.324824) rotate(-12.000000) translate(-2.971417, -4.324824) " points="2.82799843 4.24804812 2.78880008 4.81924813 2.9392528 4.24804812 3.15403399 3.83040011"></polygon>
                            <polygon id="Path-169" points="3.96480011 2.21424006 4.21269983 2.44567687 4.77684493 2.63387047 5.44797135 2.77200008 5.28904335 2.58720007 4.63169293 2.46015847 4.21269983 2.28439686 4.09920011 2.10000006"></polygon>
                            <polygon id="Path-159" points="2.11680006 1.24507035 1.8431438 1.71360005 2.01600006 1.64640005"></polygon>
                            <polygon id="Path-160" points="2.23440006 1.30503093 2.10925988 1.84800005 2.34981076 1.75694536"></polygon>
                            <polygon id="Path-161" points="2.47118085 1.44480004 2.41920007 1.99899846 2.56868129 1.94880005"></polygon>
                            <polygon id="Path-162" points="2.68999416 1.77660005 2.65440007 2.10000006 2.49394068 2.28480006 2.65440007 2.28439686 2.82240008 2.10000006"></polygon>
                        </g>
                        <g id="Group-25" opacity="0.300000012" transform="translate(90.742997, 124.439678) scale(1, -1) rotate(-22.000000) translate(-90.742997, -124.439678) translate(87.742997, 121.939678)" fill="#FFFFFF">
                            <rect id="Rectangle" x="2.95680008" y="1.94880005" width="1" height="1"></rect>
                            <rect id="Rectangle" x="1.78080005" y="0.504000014" width="1" height="1"></rect>
                            <rect id="Rectangle" x="2.11680006" y="0.70560002" width="1" height="1"></rect>
                            <rect id="Rectangle" x="2.41920007" y="0.907200025" width="1" height="1"></rect>
                            <rect id="Rectangle" x="2.65440007" y="1.17600003" width="1" height="1"></rect>
                            <rect id="Rectangle" x="2.85600008" y="1.44480004" width="1" height="1"></rect>
                            <polygon id="Rectangle" points="1.71360005 1.00800003 1.98240005 1.00800003 1.6298298 1.60206182 1.36102979 1.60206182"></polygon>
                            <polygon id="Rectangle" points="1.29337028 1.71360005 1.56217029 1.71360005 2.10925988 2.28439686 1.84045988 2.28439686"></polygon>
                            <polygon id="Rectangle" points="1.3837769 2.96188705 1.54560004 2.95114224 2.00440617 2.37153162 1.86320699 2.37153162"></polygon>
                            <polygon id="Rectangle" points="0.308470321 0.254198445 1.57920004 0 1.57920004 1.00800003 0.482376576 1.00800003 0 0.70560002"></polygon>
                            <polygon id="Path-164" points="3.5123089 2.36829607 3.08749762 2.60045524 2.94383048 2.54244487 3.32640009 2.35200007"></polygon>
                            <polygon id="Path-165" points="2.93674088 2.62270474 2.91499711 3.57590244 3.06557485 3.6624001 3.10328194 2.77092488"></polygon>
                            <polygon id="Path-166" points="2.82240008 3.73794026 2.21760006 3.78037918 2.34981076 3.6624001 2.76326744 3.6624001"></polygon>
                            <polygon id="Path-167" points="2.78755182 3.81180251 2.46489943 4.03200011 2.34981076 4.68683053 2.56325416 4.10175793"></polygon>
                            <polygon id="Path-168" points="2.62955998 4.23360012 2.59036163 4.80480013 2.74081435 4.23360012 2.95559553 3.81595211"></polygon>
                            <polygon id="Path-168" transform="translate(2.971417, 4.324824) rotate(-12.000000) translate(-2.971417, -4.324824) " points="2.82799843 4.24804812 2.78880008 4.81924813 2.9392528 4.24804812 3.15403399 3.83040011"></polygon>
                            <polygon id="Path-169" points="3.96480011 2.21424006 4.21269983 2.44567687 4.77684493 2.63387047 5.44797135 2.77200008 5.28904335 2.58720007 4.63169293 2.46015847 4.21269983 2.28439686 4.09920011 2.10000006"></polygon>
                            <polygon id="Path-159" points="2.11680006 1.24507035 1.8431438 1.71360005 2.01600006 1.64640005"></polygon>
                            <polygon id="Path-160" points="2.23440006 1.30503093 2.10925988 1.84800005 2.34981076 1.75694536"></polygon>
                            <polygon id="Path-161" points="2.47118085 1.44480004 2.41920007 1.99899846 2.56868129 1.94880005"></polygon>
                            <polygon id="Path-162" points="2.68999416 1.77660005 2.65440007 2.10000006 2.49394068 2.28480006 2.65440007 2.28439686 2.82240008 2.10000006"></polygon>
                        </g>
                        <g id="Group-25" opacity="0.5" transform="translate(65.057303, 127.980303) scale(1, -1) rotate(-202.000000) translate(-65.057303, -127.980303) translate(62.057303, 125.480303)" fill="#FFFFFF">
                            <rect id="Rectangle" x="2.95680008" y="1.94880005" width="1" height="1"></rect>
                            <rect id="Rectangle" x="1.78080005" y="0.504000014" width="1" height="1"></rect>
                            <rect id="Rectangle" x="2.11680006" y="0.70560002" width="1" height="1"></rect>
                            <rect id="Rectangle" x="2.41920007" y="0.907200025" width="1" height="1"></rect>
                            <rect id="Rectangle" x="2.65440007" y="1.17600003" width="1" height="1"></rect>
                            <rect id="Rectangle" x="2.85600008" y="1.44480004" width="1" height="1"></rect>
                            <polygon id="Rectangle" points="1.71360005 1.00800003 1.98240005 1.00800003 1.6298298 1.60206182 1.36102979 1.60206182"></polygon>
                            <polygon id="Rectangle" points="1.29337028 1.71360005 1.56217029 1.71360005 2.10925988 2.28439686 1.84045988 2.28439686"></polygon>
                            <polygon id="Rectangle" points="1.3837769 2.96188705 1.54560004 2.95114224 2.00440617 2.37153162 1.86320699 2.37153162"></polygon>
                            <polygon id="Rectangle" points="0.308470321 0.254198445 1.57920004 0 1.57920004 1.00800003 0.482376576 1.00800003 0 0.70560002"></polygon>
                            <polygon id="Path-164" points="3.5123089 2.36829607 3.08749762 2.60045524 2.94383048 2.54244487 3.32640009 2.35200007"></polygon>
                            <polygon id="Path-165" points="2.93674088 2.62270474 2.91499711 3.57590244 3.06557485 3.6624001 3.10328194 2.77092488"></polygon>
                            <polygon id="Path-166" points="2.82240008 3.73794026 2.21760006 3.78037918 2.34981076 3.6624001 2.76326744 3.6624001"></polygon>
                            <polygon id="Path-167" points="2.78755182 3.81180251 2.46489943 4.03200011 2.34981076 4.68683053 2.56325416 4.10175793"></polygon>
                            <polygon id="Path-168" points="2.62955998 4.23360012 2.59036163 4.80480013 2.74081435 4.23360012 2.95559553 3.81595211"></polygon>
                            <polygon id="Path-168" transform="translate(2.971417, 4.324824) rotate(-12.000000) translate(-2.971417, -4.324824) " points="2.82799843 4.24804812 2.78880008 4.81924813 2.9392528 4.24804812 3.15403399 3.83040011"></polygon>
                            <polygon id="Path-169" points="3.96480011 2.21424006 4.21269983 2.44567687 4.77684493 2.63387047 5.44797135 2.77200008 5.28904335 2.58720007 4.63169293 2.46015847 4.21269983 2.28439686 4.09920011 2.10000006"></polygon>
                            <polygon id="Path-159" points="2.11680006 1.24507035 1.8431438 1.71360005 2.01600006 1.64640005"></polygon>
                            <polygon id="Path-160" points="2.23440006 1.30503093 2.10925988 1.84800005 2.34981076 1.75694536"></polygon>
                            <polygon id="Path-161" points="2.47118085 1.44480004 2.41920007 1.99899846 2.56868129 1.94880005"></polygon>
                            <polygon id="Path-162" points="2.68999416 1.77660005 2.65440007 2.10000006 2.49394068 2.28480006 2.65440007 2.28439686 2.82240008 2.10000006"></polygon>
                        </g>
                    </g>
                </g>
            </g>
        </g>
    </g>
</svg>