<?xml version="1.0" encoding="UTF-8"?>
<svg width="814px" height="788px" viewBox="0 0 814 788" version="1.1" xmlns="http://www.w3.org/2000/svg" xmlns:xlink="http://www.w3.org/1999/xlink">
    <!-- Generator: Sketch 61.2 (89653) - https://sketch.com -->
    <title>Group</title>
    <desc>Created with Sketch.</desc>
    <g id="Page-1" stroke="none" stroke-width="1" fill="none" fill-rule="evenodd">
        <g id="Group" transform="translate(0.922775, 0.214358)">
            <polygon id="Path-2" fill="#E3E3E3" points="174.663064 431.399367 279.762311 447.860964 309.969229 489.903012 390.3808 466.426957 455.217245 451.344482 538.094452 455.599293 560.806127 455.599293 606.954244 466.426957 636.660557 455.599293 751.264155 451.344482 812.519612 409.760617 756.541225 376.285642 756.541225 365.424939 740.488985 361.540352 728.271601 349.24837 580.858994 304.857435 514.682876 282.069333 190.767468 333.59122 120.436003 354.276783 0 431.399367"></polygon>
            <polygon id="Path" fill="#767676" points="397.872934 0 218.156191 357.67725 401.782268 376.285642"></polygon>
            <polygon id="Path" fill="#AFAFAF" points="332.605409 123.110449 125.045724 363.554666 362.12469 376.285642"></polygon>
            <polygon id="Path-5" fill="#E3E3E3" points="353.475854 539.993278 438.848092 590.900263 499.438997 518.651995 421.647235 506.085753"></polygon>
            <polygon id="Path-5" fill="#282828" points="222.077225 521.693166 368.040368 787.31511 438.848092 590.900263 290.248606 487.785642"></polygon>
            <polygon id="Path-5" fill="#2E2E2E" points="535.586397 518.651995 368.040368 787.31511 438.848092 590.900263 499.438997 518.106023"></polygon>
            <polygon id="Path-5" fill="#2F2F2F" points="645.681695 518.651995 590.946924 649.704517 492.037112 518.106023"></polygon>
            <polygon id="Path-5" fill="#2A2A2A" points="259.404565 496.221425 136.597133 590.900263 53.0772248 495.785642"></polygon>
            <polygon id="Path-5" fill="#252525" points="186.316765 475.025681 207.597133 651.900263 143.931311 468.74256"></polygon>
            <polygon id="Path-5" fill="#484848" points="186.316765 475.025681 207.597133 651.900263 264.044595 502.217803"></polygon>
            <polygon id="Path-5" fill="#525252" points="602.367182 496.221425 697.478107 637.550376 758.449463 536.600152"></polygon>
            <polygon id="Path-5" fill="#E3E3E3" points="688.336268 518.362649 758.449463 536.600152 753.688318 507.892761 713.03251 499.611895"></polygon>
            <polygon id="Path" fill="#5C5C5C" points="459.248731 3.78564164 538.094452 285.696775 393.077225 296.083214"></polygon>
            <polygon id="Path" fill="#8B8B8B" points="418.636909 122.785642 367.12219 389.075052 362.12469 369.707502"></polygon>
            <polygon id="Path-3" fill="#B0B0B0" points="3.12638804e-13 431.399367 3.12638804e-13 489.903012 13.8669399 506.085753 173.460256 506.085753 174.054353 431.399367"></polygon>
            <polygon id="Path-4" fill="#A2A2A2" points="173.460256 506.122137 279.762311 518.651995 279.762311 447.860964 174.054353 430.913705"></polygon>
            <polygon id="Path" fill="#C3C3C3" points="455.217245 27.8859047 541.718976 287.940616 451.045739 369.220652"></polygon>
            <polygon id="Path-4" fill="#828282" points="279.762311 518.651995 309.969229 556.574642 309.969229 489.903012 279.762311 447.860964"></polygon>
            <polygon id="Path" fill="#909090" points="455.217245 27.8859047 410.754421 260.53821 451.045739 369.220652"></polygon>
            <polygon id="Path" fill="#D8D8D8" points="418.636909 122.785642 367.12219 389.075052 448.156191 375.960835"></polygon>
            <polygon id="Path-4" fill="#525252" transform="translate(350.175014, 511.500799) scale(-1, 1) translate(-350.175014, -511.500799) " points="312.657545 530.448023 390.3808 556.574642 390.3808 489.903012 309.969229 466.426957"></polygon>
            <polygon id="Path-4" fill="#929292" transform="translate(421.454864, 490.896252) scale(-1, 1) translate(-421.454864, -490.896252) " points="388.938495 518.651995 455.217245 530.448023 452.528929 466.426957 387.692484 451.344482"></polygon>
            <polygon id="Path-4" fill="#9E9E9E" points="453.971234 518.651995 535.586397 525.515647 538.094452 455.599293 455.217245 451.344482"></polygon>
            <polygon id="Path-4" fill="#5B5B5B" transform="translate(548.196262, 491.265193) scale(-1, 1) translate(-548.196262, -491.265193) " points="540.628425 526.931094 560.806127 525.515647 558.298072 455.599293 535.586397 455.599293"></polygon>
            <polygon id="Path-4" fill="#A1A1A1" points="555.764099 526.931094 599.094255 536.843556 606.954244 466.426957 560.806127 455.599293"></polygon>
            <polygon id="Path-4" fill="#5B5B5B" transform="translate(617.877406, 496.221425) scale(-1, 1) translate(-617.877406, -496.221425) " points="601.08861 528.880044 636.660557 536.843556 628.800568 466.426957 599.094255 455.599293"></polygon>
            <polygon id="Path-4" fill="#B9B9B9" points="634.666203 528.880044 748.222774 518.362649 751.264155 451.344482 636.660557 455.599293"></polygon>
            <polygon id="Path-4" fill="#5B5B5B" points="807.01772 477.484165 748.222774 518.362649 751.264155 451.344482 812.519612 409.760617"></polygon>
            <polygon id="Path-6" fill="#9D9D9D" points="284.786699 440.359555 311.602693 478.78748 393.077225 453.732874 458.591009 440.359555 485.656057 358.347046 429.670783 396.79889 344.815516 408.794186"></polygon>
            <polygon id="Path-7" fill="#5B5B5B" points="317.193916 413.000336 326.534403 406.783937 481.476659 411.582282 479.718987 418.567263"></polygon>
        </g>
    </g>
</svg>